solid ascii
  facet normal 6.915514e-001 -7.016738e-001 -1.714948e-001
    outer loop
      vertex   4.038118e-001 -8.530000e-001 1.411915e-001
      vertex   4.043886e-001 -8.530000e-001 1.435174e-001
      vertex   4.041392e-001 -8.532500e-001 1.435345e-001
    endloop
  endfacet
  facet normal 7.085004e-001 -7.016738e-001 7.537210e-002
    outer loop
      vertex   4.041392e-001 -8.532500e-001 1.435345e-001
      vertex   4.043886e-001 -8.530000e-001 1.435174e-001
      vertex   4.041351e-001 -8.530000e-001 1.459003e-001
    endloop
  endfacet
  facet normal 6.399939e-001 -7.016738e-001 3.131480e-001
    outer loop
      vertex   4.038949e-001 -8.532500e-001 1.458311e-001
      vertex   4.041351e-001 -8.530000e-001 1.459003e-001
      vertex   4.030819e-001 -8.530000e-001 1.480528e-001
    endloop
  endfacet
  facet normal 4.942946e-001 -7.016738e-001 5.131537e-001
    outer loop
      vertex   4.028799e-001 -8.532500e-001 1.479056e-001
      vertex   4.030819e-001 -8.530000e-001 1.480528e-001
      vertex   4.012165e-001 -8.532500e-001 1.495078e-001
    endloop
  endfacet
  facet normal 6.399939e-001 -7.016738e-001 3.131480e-001
    outer loop
      vertex   4.028799e-001 -8.532500e-001 1.479056e-001
      vertex   4.038949e-001 -8.532500e-001 1.458311e-001
      vertex   4.030819e-001 -8.530000e-001 1.480528e-001
    endloop
  endfacet
  facet normal 4.942946e-001 -7.016738e-001 5.131537e-001
    outer loop
      vertex   4.030819e-001 -8.530000e-001 1.480528e-001
      vertex   4.013560e-001 -8.530000e-001 1.497152e-001
      vertex   4.012165e-001 -8.532500e-001 1.495078e-001
    endloop
  endfacet
  facet normal 2.889761e-001 -7.016738e-001 6.512654e-001
    outer loop
      vertex   4.012165e-001 -8.532500e-001 1.495078e-001
      vertex   4.013560e-001 -8.530000e-001 1.497152e-001
      vertex   3.991656e-001 -8.530000e-001 1.506871e-001
    endloop
  endfacet
  facet normal 4.880278e-002 -7.016738e-001 7.108249e-001
    outer loop
      vertex   3.991055e-001 -8.532500e-001 1.504445e-001
      vertex   3.991656e-001 -8.530000e-001 1.506871e-001
      vertex   3.967749e-001 -8.530000e-001 1.508513e-001
    endloop
  endfacet
  facet normal -1.972568e-001 -7.016738e-001 6.846485e-001
    outer loop
      vertex   3.968014e-001 -8.532500e-001 1.506027e-001
      vertex   3.967749e-001 -8.530000e-001 1.508513e-001
      vertex   3.944722e-001 -8.530000e-001 1.501879e-001
    endloop
  endfacet
  facet normal -4.195244e-001 -7.016738e-001 5.758933e-001
    outer loop
      vertex   3.945821e-001 -8.532500e-001 1.499633e-001
      vertex   3.944722e-001 -8.530000e-001 1.501879e-001
      vertex   3.927154e-001 -8.532500e-001 1.486034e-001
    endloop
  endfacet
  facet normal -1.972568e-001 -7.016738e-001 6.846485e-001
    outer loop
      vertex   3.945821e-001 -8.532500e-001 1.499633e-001
      vertex   3.968014e-001 -8.532500e-001 1.506027e-001
      vertex   3.944722e-001 -8.530000e-001 1.501879e-001
    endloop
  endfacet
  facet normal -4.195244e-001 -7.016738e-001 5.758933e-001
    outer loop
      vertex   3.944722e-001 -8.530000e-001 1.501879e-001
      vertex   3.925353e-001 -8.530000e-001 1.487769e-001
      vertex   3.927154e-001 -8.532500e-001 1.486034e-001
    endloop
  endfacet
  facet normal -5.911911e-001 -7.016738e-001 3.976769e-001
    outer loop
      vertex   3.927154e-001 -8.532500e-001 1.486034e-001
      vertex   3.925353e-001 -8.530000e-001 1.487769e-001
      vertex   3.911978e-001 -8.530000e-001 1.467885e-001
    endloop
  endfacet
  facet normal -6.915514e-001 -7.016738e-001 1.714948e-001
    outer loop
      vertex   3.914263e-001 -8.532500e-001 1.466871e-001
      vertex   3.911978e-001 -8.530000e-001 1.467885e-001
      vertex   3.906210e-001 -8.530000e-001 1.444626e-001
    endloop
  endfacet
  facet normal -7.085004e-001 -7.016738e-001 -7.537210e-002
    outer loop
      vertex   3.908705e-001 -8.532500e-001 1.444455e-001
      vertex   3.906210e-001 -8.530000e-001 1.444626e-001
      vertex   3.911148e-001 -8.532500e-001 1.421489e-001
    endloop
  endfacet
  facet normal -6.915514e-001 -7.016738e-001 1.714948e-001
    outer loop
      vertex   3.908705e-001 -8.532500e-001 1.444455e-001
      vertex   3.914263e-001 -8.532500e-001 1.466871e-001
      vertex   3.906210e-001 -8.530000e-001 1.444626e-001
    endloop
  endfacet
  facet normal -7.085004e-001 -7.016738e-001 -7.537210e-002
    outer loop
      vertex   3.906210e-001 -8.530000e-001 1.444626e-001
      vertex   3.908745e-001 -8.530000e-001 1.420797e-001
      vertex   3.911148e-001 -8.532500e-001 1.421489e-001
    endloop
  endfacet
  facet normal -6.399939e-001 -7.016738e-001 -3.131480e-001
    outer loop
      vertex   3.911148e-001 -8.532500e-001 1.421489e-001
      vertex   3.908745e-001 -8.530000e-001 1.420797e-001
      vertex   3.919278e-001 -8.530000e-001 1.399272e-001
    endloop
  endfacet
  facet normal -4.942946e-001 -7.016738e-001 -5.131537e-001
    outer loop
      vertex   3.921298e-001 -8.532500e-001 1.400744e-001
      vertex   3.919278e-001 -8.530000e-001 1.399272e-001
      vertex   3.936536e-001 -8.530000e-001 1.382648e-001
    endloop
  endfacet
  facet normal -2.889761e-001 -7.016738e-001 -6.512654e-001
    outer loop
      vertex   3.937932e-001 -8.532500e-001 1.384722e-001
      vertex   3.936536e-001 -8.530000e-001 1.382648e-001
      vertex   3.958440e-001 -8.530000e-001 1.372929e-001
    endloop
  endfacet
  facet normal -4.880278e-002 -7.016738e-001 -7.108249e-001
    outer loop
      vertex   3.959042e-001 -8.532500e-001 1.375355e-001
      vertex   3.958440e-001 -8.530000e-001 1.372929e-001
      vertex   3.982083e-001 -8.532500e-001 1.373773e-001
    endloop
  endfacet
  facet normal -2.889761e-001 -7.016738e-001 -6.512654e-001
    outer loop
      vertex   3.959042e-001 -8.532500e-001 1.375355e-001
      vertex   3.937932e-001 -8.532500e-001 1.384722e-001
      vertex   3.958440e-001 -8.530000e-001 1.372929e-001
    endloop
  endfacet
  facet normal -4.880278e-002 -7.016738e-001 -7.108249e-001
    outer loop
      vertex   3.958440e-001 -8.530000e-001 1.372929e-001
      vertex   3.982348e-001 -8.530000e-001 1.371287e-001
      vertex   3.982083e-001 -8.532500e-001 1.373773e-001
    endloop
  endfacet
  facet normal 1.972568e-001 -7.016738e-001 -6.846485e-001
    outer loop
      vertex   3.982083e-001 -8.532500e-001 1.373773e-001
      vertex   3.982348e-001 -8.530000e-001 1.371287e-001
      vertex   4.005374e-001 -8.530000e-001 1.377921e-001
    endloop
  endfacet
  facet normal 4.195244e-001 -7.016738e-001 -5.758933e-001
    outer loop
      vertex   4.004276e-001 -8.532500e-001 1.380167e-001
      vertex   4.005374e-001 -8.530000e-001 1.377921e-001
      vertex   4.024743e-001 -8.530000e-001 1.392031e-001
    endloop
  endfacet
  facet normal 5.911911e-001 -7.016738e-001 -3.976769e-001
    outer loop
      vertex   4.022943e-001 -8.532500e-001 1.393766e-001
      vertex   4.024743e-001 -8.530000e-001 1.392031e-001
      vertex   4.038118e-001 -8.530000e-001 1.411915e-001
    endloop
  endfacet
  facet normal 4.195244e-001 -7.016738e-001 -5.758933e-001
    outer loop
      vertex   4.022943e-001 -8.532500e-001 1.393766e-001
      vertex   4.004276e-001 -8.532500e-001 1.380167e-001
      vertex   4.024743e-001 -8.530000e-001 1.392031e-001
    endloop
  endfacet
  facet normal 1.972568e-001 -7.016738e-001 -6.846485e-001
    outer loop
      vertex   4.004276e-001 -8.532500e-001 1.380167e-001
      vertex   3.982083e-001 -8.532500e-001 1.373773e-001
      vertex   4.005374e-001 -8.530000e-001 1.377921e-001
    endloop
  endfacet
  facet normal -4.942946e-001 -7.016738e-001 -5.131537e-001
    outer loop
      vertex   3.937932e-001 -8.532500e-001 1.384722e-001
      vertex   3.921298e-001 -8.532500e-001 1.400744e-001
      vertex   3.936536e-001 -8.530000e-001 1.382648e-001
    endloop
  endfacet
  facet normal -6.399939e-001 -7.016738e-001 -3.131480e-001
    outer loop
      vertex   3.921298e-001 -8.532500e-001 1.400744e-001
      vertex   3.911148e-001 -8.532500e-001 1.421489e-001
      vertex   3.919278e-001 -8.530000e-001 1.399272e-001
    endloop
  endfacet
  facet normal -5.911911e-001 -7.016738e-001 3.976769e-001
    outer loop
      vertex   3.914263e-001 -8.532500e-001 1.466871e-001
      vertex   3.927154e-001 -8.532500e-001 1.486034e-001
      vertex   3.911978e-001 -8.530000e-001 1.467885e-001
    endloop
  endfacet
  facet normal 4.880278e-002 -7.016738e-001 7.108249e-001
    outer loop
      vertex   3.968014e-001 -8.532500e-001 1.506027e-001
      vertex   3.991055e-001 -8.532500e-001 1.504445e-001
      vertex   3.967749e-001 -8.530000e-001 1.508513e-001
    endloop
  endfacet
  facet normal 2.889761e-001 -7.016738e-001 6.512654e-001
    outer loop
      vertex   3.991055e-001 -8.532500e-001 1.504445e-001
      vertex   4.012165e-001 -8.532500e-001 1.495078e-001
      vertex   3.991656e-001 -8.530000e-001 1.506871e-001
    endloop
  endfacet
  facet normal 7.085004e-001 -7.016738e-001 7.537210e-002
    outer loop
      vertex   4.038949e-001 -8.532500e-001 1.458311e-001
      vertex   4.041392e-001 -8.532500e-001 1.435345e-001
      vertex   4.041351e-001 -8.530000e-001 1.459003e-001
    endloop
  endfacet
  facet normal 8.297438e-001 5.801734e-014 -5.581444e-001
    outer loop
      vertex   4.038118e-001 1.650000e-002 1.411915e-001
      vertex   4.038118e-001 -8.530000e-001 1.411915e-001
      vertex   4.024743e-001 1.650000e-002 1.392031e-001
    endloop
  endfacet
  facet normal 8.297438e-001 5.801725e-014 -5.581444e-001
    outer loop
      vertex   4.024743e-001 1.650000e-002 1.392031e-001
      vertex   4.038118e-001 -8.530000e-001 1.411915e-001
      vertex   4.024743e-001 -8.530000e-001 1.392031e-001
    endloop
  endfacet
  facet normal 5.888075e-001 5.092064e-014 -8.082733e-001
    outer loop
      vertex   4.005374e-001 -8.530000e-001 1.377921e-001
      vertex   4.024743e-001 1.650000e-002 1.392031e-001
      vertex   4.024743e-001 -8.530000e-001 1.392031e-001
    endloop
  endfacet
  facet normal 5.888075e-001 5.088305e-014 -8.082733e-001
    outer loop
      vertex   4.005374e-001 -8.530000e-001 1.377921e-001
      vertex   4.005374e-001 1.650000e-002 1.377921e-001
      vertex   4.024743e-001 1.650000e-002 1.392031e-001
    endloop
  endfacet
  facet normal 2.768524e-001 3.766444e-014 -9.609125e-001
    outer loop
      vertex   4.005374e-001 -8.530000e-001 1.377921e-001
      vertex   3.982348e-001 -8.530000e-001 1.371287e-001
      vertex   4.005374e-001 1.650000e-002 1.377921e-001
    endloop
  endfacet
  facet normal 2.768524e-001 3.762081e-014 -9.609125e-001
    outer loop
      vertex   4.005374e-001 1.650000e-002 1.377921e-001
      vertex   3.982348e-001 -8.530000e-001 1.371287e-001
      vertex   3.982348e-001 1.650000e-002 1.371287e-001
    endloop
  endfacet
  facet normal -6.849529e-002 1.983495e-014 -9.976514e-001
    outer loop
      vertex   3.982348e-001 1.650000e-002 1.371287e-001
      vertex   3.982348e-001 -8.530000e-001 1.371287e-001
      vertex   3.958440e-001 1.650000e-002 1.372929e-001
    endloop
  endfacet
  facet normal -6.849529e-002 1.987116e-014 -9.976514e-001
    outer loop
      vertex   3.958440e-001 1.650000e-002 1.372929e-001
      vertex   3.982348e-001 -8.530000e-001 1.371287e-001
      vertex   3.958440e-001 -8.530000e-001 1.372929e-001
    endloop
  endfacet
  facet normal -4.055814e-001 -2.882166e-016 -9.140589e-001
    outer loop
      vertex   3.936536e-001 -8.530000e-001 1.382648e-001
      vertex   3.958440e-001 1.650000e-002 1.372929e-001
      vertex   3.958440e-001 -8.530000e-001 1.372929e-001
    endloop
  endfacet
  facet normal -4.055814e-001 -3.141099e-016 -9.140589e-001
    outer loop
      vertex   3.936536e-001 -8.530000e-001 1.382648e-001
      vertex   3.936536e-001 1.650000e-002 1.382648e-001
      vertex   3.958440e-001 1.650000e-002 1.372929e-001
    endloop
  endfacet
  facet normal -6.937484e-001 -2.045728e-014 -7.202174e-001
    outer loop
      vertex   3.936536e-001 -8.530000e-001 1.382648e-001
      vertex   3.919278e-001 -8.530000e-001 1.399272e-001
      vertex   3.936536e-001 1.650000e-002 1.382648e-001
    endloop
  endfacet
  facet normal -6.937484e-001 -2.045713e-014 -7.202174e-001
    outer loop
      vertex   3.936536e-001 1.650000e-002 1.382648e-001
      vertex   3.919278e-001 -8.530000e-001 1.399272e-001
      vertex   3.919278e-001 1.650000e-002 1.399272e-001
    endloop
  endfacet
  facet normal -8.982391e-001 -3.813273e-014 -4.395071e-001
    outer loop
      vertex   3.919278e-001 1.650000e-002 1.399272e-001
      vertex   3.919278e-001 -8.530000e-001 1.399272e-001
      vertex   3.908745e-001 -8.530000e-001 1.420797e-001
    endloop
  endfacet
  facet normal -9.943890e-001 -5.120895e-014 -1.057857e-001
    outer loop
      vertex   3.908745e-001 1.650000e-002 1.420797e-001
      vertex   3.908745e-001 -8.530000e-001 1.420797e-001
      vertex   3.906210e-001 1.650000e-002 1.444626e-001
    endloop
  endfacet
  facet normal -8.982391e-001 -3.813255e-014 -4.395071e-001
    outer loop
      vertex   3.908745e-001 1.650000e-002 1.420797e-001
      vertex   3.919278e-001 1.650000e-002 1.399272e-001
      vertex   3.908745e-001 -8.530000e-001 1.420797e-001
    endloop
  endfacet
  facet normal -9.943890e-001 -5.121233e-014 -1.057857e-001
    outer loop
      vertex   3.908745e-001 -8.530000e-001 1.420797e-001
      vertex   3.906210e-001 -8.530000e-001 1.444626e-001
      vertex   3.906210e-001 1.650000e-002 1.444626e-001
    endloop
  endfacet
  facet normal -9.706008e-001 -5.810093e-014 2.406950e-001
    outer loop
      vertex   3.906210e-001 1.650000e-002 1.444626e-001
      vertex   3.906210e-001 -8.530000e-001 1.444626e-001
      vertex   3.911978e-001 -8.530000e-001 1.467885e-001
    endloop
  endfacet
  facet normal -8.297438e-001 -5.798171e-014 5.581444e-001
    outer loop
      vertex   3.911978e-001 1.650000e-002 1.467885e-001
      vertex   3.911978e-001 -8.530000e-001 1.467885e-001
      vertex   3.925353e-001 -8.530000e-001 1.487769e-001
    endloop
  endfacet
  facet normal -5.888075e-001 -5.086904e-014 8.082733e-001
    outer loop
      vertex   3.925353e-001 1.650000e-002 1.487769e-001
      vertex   3.925353e-001 -8.530000e-001 1.487769e-001
      vertex   3.944722e-001 1.650000e-002 1.501879e-001
    endloop
  endfacet
  facet normal -8.297438e-001 -5.798168e-014 5.581444e-001
    outer loop
      vertex   3.925353e-001 1.650000e-002 1.487769e-001
      vertex   3.911978e-001 1.650000e-002 1.467885e-001
      vertex   3.925353e-001 -8.530000e-001 1.487769e-001
    endloop
  endfacet
  facet normal -5.888075e-001 -5.090663e-014 8.082733e-001
    outer loop
      vertex   3.925353e-001 -8.530000e-001 1.487769e-001
      vertex   3.944722e-001 -8.530000e-001 1.501879e-001
      vertex   3.944722e-001 1.650000e-002 1.501879e-001
    endloop
  endfacet
  facet normal -2.768524e-001 -3.763848e-014 9.609125e-001
    outer loop
      vertex   3.944722e-001 1.650000e-002 1.501879e-001
      vertex   3.944722e-001 -8.530000e-001 1.501879e-001
      vertex   3.967749e-001 -8.530000e-001 1.508513e-001
    endloop
  endfacet
  facet normal 6.849529e-002 -1.989865e-014 9.976514e-001
    outer loop
      vertex   3.967749e-001 1.650000e-002 1.508513e-001
      vertex   3.967749e-001 -8.530000e-001 1.508513e-001
      vertex   3.991656e-001 -8.530000e-001 1.506871e-001
    endloop
  endfacet
  facet normal 4.055814e-001 3.400033e-016 9.140589e-001
    outer loop
      vertex   3.991656e-001 1.650000e-002 1.506871e-001
      vertex   3.991656e-001 -8.530000e-001 1.506871e-001
      vertex   4.013560e-001 -8.530000e-001 1.497152e-001
    endloop
  endfacet
  facet normal 6.937484e-001 2.045713e-014 7.202174e-001
    outer loop
      vertex   4.013560e-001 1.650000e-002 1.497152e-001
      vertex   4.013560e-001 -8.530000e-001 1.497152e-001
      vertex   4.030819e-001 1.650000e-002 1.480528e-001
    endloop
  endfacet
  facet normal 4.055814e-001 3.140363e-016 9.140589e-001
    outer loop
      vertex   4.013560e-001 1.650000e-002 1.497152e-001
      vertex   3.991656e-001 1.650000e-002 1.506871e-001
      vertex   4.013560e-001 -8.530000e-001 1.497152e-001
    endloop
  endfacet
  facet normal 6.937484e-001 2.043414e-014 7.202174e-001
    outer loop
      vertex   4.013560e-001 -8.530000e-001 1.497152e-001
      vertex   4.030819e-001 -8.530000e-001 1.480528e-001
      vertex   4.030819e-001 1.650000e-002 1.480528e-001
    endloop
  endfacet
  facet normal 8.982391e-001 3.811870e-014 4.395071e-001
    outer loop
      vertex   4.030819e-001 1.650000e-002 1.480528e-001
      vertex   4.030819e-001 -8.530000e-001 1.480528e-001
      vertex   4.041351e-001 -8.530000e-001 1.459003e-001
    endloop
  endfacet
  facet normal 9.943890e-001 5.120895e-014 1.057857e-001
    outer loop
      vertex   4.041351e-001 1.650000e-002 1.459003e-001
      vertex   4.041351e-001 -8.530000e-001 1.459003e-001
      vertex   4.043886e-001 -8.530000e-001 1.435174e-001
    endloop
  endfacet
  facet normal 9.706008e-001 5.811630e-014 -2.406950e-001
    outer loop
      vertex   4.043886e-001 1.650000e-002 1.435174e-001
      vertex   4.043886e-001 -8.530000e-001 1.435174e-001
      vertex   4.038118e-001 1.650000e-002 1.411915e-001
    endloop
  endfacet
  facet normal 9.943890e-001 5.120560e-014 1.057857e-001
    outer loop
      vertex   4.043886e-001 1.650000e-002 1.435174e-001
      vertex   4.041351e-001 1.650000e-002 1.459003e-001
      vertex   4.043886e-001 -8.530000e-001 1.435174e-001
    endloop
  endfacet
  facet normal 9.706008e-001 5.811630e-014 -2.406950e-001
    outer loop
      vertex   4.043886e-001 -8.530000e-001 1.435174e-001
      vertex   4.038118e-001 -8.530000e-001 1.411915e-001
      vertex   4.038118e-001 1.650000e-002 1.411915e-001
    endloop
  endfacet
  facet normal 8.982391e-001 3.813275e-014 4.395071e-001
    outer loop
      vertex   4.041351e-001 1.650000e-002 1.459003e-001
      vertex   4.030819e-001 1.650000e-002 1.480528e-001
      vertex   4.041351e-001 -8.530000e-001 1.459003e-001
    endloop
  endfacet
  facet normal 6.849529e-002 -1.986244e-014 9.976514e-001
    outer loop
      vertex   3.991656e-001 1.650000e-002 1.506871e-001
      vertex   3.967749e-001 1.650000e-002 1.508513e-001
      vertex   3.991656e-001 -8.530000e-001 1.506871e-001
    endloop
  endfacet
  facet normal -2.768524e-001 -3.768212e-014 9.609125e-001
    outer loop
      vertex   3.967749e-001 1.650000e-002 1.508513e-001
      vertex   3.944722e-001 1.650000e-002 1.501879e-001
      vertex   3.967749e-001 -8.530000e-001 1.508513e-001
    endloop
  endfacet
  facet normal -9.706008e-001 -5.810089e-014 2.406950e-001
    outer loop
      vertex   3.911978e-001 1.650000e-002 1.467885e-001
      vertex   3.906210e-001 1.650000e-002 1.444626e-001
      vertex   3.911978e-001 -8.530000e-001 1.467885e-001
    endloop
  endfacet
  facet normal 5.911911e-001 7.016738e-001 -3.976769e-001
    outer loop
      vertex   4.038118e-001 1.650000e-002 1.411915e-001
      vertex   4.024743e-001 1.650000e-002 1.392031e-001
      vertex   4.022943e-001 1.675000e-002 1.393766e-001
    endloop
  endfacet
  facet normal 4.195244e-001 7.016738e-001 -5.758933e-001
    outer loop
      vertex   4.022943e-001 1.675000e-002 1.393766e-001
      vertex   4.024743e-001 1.650000e-002 1.392031e-001
      vertex   4.005374e-001 1.650000e-002 1.377921e-001
    endloop
  endfacet
  facet normal 1.972568e-001 7.016738e-001 -6.846485e-001
    outer loop
      vertex   4.004276e-001 1.675000e-002 1.380167e-001
      vertex   4.005374e-001 1.650000e-002 1.377921e-001
      vertex   3.982348e-001 1.650000e-002 1.371287e-001
    endloop
  endfacet
  facet normal -4.880278e-002 7.016738e-001 -7.108249e-001
    outer loop
      vertex   3.982083e-001 1.675000e-002 1.373773e-001
      vertex   3.982348e-001 1.650000e-002 1.371287e-001
      vertex   3.959042e-001 1.675000e-002 1.375355e-001
    endloop
  endfacet
  facet normal 1.972568e-001 7.016738e-001 -6.846485e-001
    outer loop
      vertex   3.982083e-001 1.675000e-002 1.373773e-001
      vertex   4.004276e-001 1.675000e-002 1.380167e-001
      vertex   3.982348e-001 1.650000e-002 1.371287e-001
    endloop
  endfacet
  facet normal -4.880278e-002 7.016738e-001 -7.108249e-001
    outer loop
      vertex   3.982348e-001 1.650000e-002 1.371287e-001
      vertex   3.958440e-001 1.650000e-002 1.372929e-001
      vertex   3.959042e-001 1.675000e-002 1.375355e-001
    endloop
  endfacet
  facet normal -2.889761e-001 7.016738e-001 -6.512654e-001
    outer loop
      vertex   3.959042e-001 1.675000e-002 1.375355e-001
      vertex   3.958440e-001 1.650000e-002 1.372929e-001
      vertex   3.936536e-001 1.650000e-002 1.382648e-001
    endloop
  endfacet
  facet normal -4.942946e-001 7.016738e-001 -5.131537e-001
    outer loop
      vertex   3.937932e-001 1.675000e-002 1.384722e-001
      vertex   3.936536e-001 1.650000e-002 1.382648e-001
      vertex   3.919278e-001 1.650000e-002 1.399272e-001
    endloop
  endfacet
  facet normal -6.399939e-001 7.016738e-001 -3.131480e-001
    outer loop
      vertex   3.921298e-001 1.675000e-002 1.400744e-001
      vertex   3.919278e-001 1.650000e-002 1.399272e-001
      vertex   3.908745e-001 1.650000e-002 1.420797e-001
    endloop
  endfacet
  facet normal -7.085004e-001 7.016738e-001 -7.537210e-002
    outer loop
      vertex   3.911148e-001 1.675000e-002 1.421489e-001
      vertex   3.908745e-001 1.650000e-002 1.420797e-001
      vertex   3.908705e-001 1.675000e-002 1.444455e-001
    endloop
  endfacet
  facet normal -6.399939e-001 7.016738e-001 -3.131480e-001
    outer loop
      vertex   3.911148e-001 1.675000e-002 1.421489e-001
      vertex   3.921298e-001 1.675000e-002 1.400744e-001
      vertex   3.908745e-001 1.650000e-002 1.420797e-001
    endloop
  endfacet
  facet normal -7.085004e-001 7.016738e-001 -7.537210e-002
    outer loop
      vertex   3.908745e-001 1.650000e-002 1.420797e-001
      vertex   3.906210e-001 1.650000e-002 1.444626e-001
      vertex   3.908705e-001 1.675000e-002 1.444455e-001
    endloop
  endfacet
  facet normal -6.915514e-001 7.016738e-001 1.714948e-001
    outer loop
      vertex   3.908705e-001 1.675000e-002 1.444455e-001
      vertex   3.906210e-001 1.650000e-002 1.444626e-001
      vertex   3.911978e-001 1.650000e-002 1.467885e-001
    endloop
  endfacet
  facet normal -5.911911e-001 7.016738e-001 3.976769e-001
    outer loop
      vertex   3.914263e-001 1.675000e-002 1.466871e-001
      vertex   3.911978e-001 1.650000e-002 1.467885e-001
      vertex   3.925353e-001 1.650000e-002 1.487769e-001
    endloop
  endfacet
  facet normal -4.195244e-001 7.016738e-001 5.758933e-001
    outer loop
      vertex   3.927154e-001 1.675000e-002 1.486034e-001
      vertex   3.925353e-001 1.650000e-002 1.487769e-001
      vertex   3.945821e-001 1.675000e-002 1.499633e-001
    endloop
  endfacet
  facet normal -5.911911e-001 7.016738e-001 3.976769e-001
    outer loop
      vertex   3.927154e-001 1.675000e-002 1.486034e-001
      vertex   3.914263e-001 1.675000e-002 1.466871e-001
      vertex   3.925353e-001 1.650000e-002 1.487769e-001
    endloop
  endfacet
  facet normal -4.195244e-001 7.016738e-001 5.758933e-001
    outer loop
      vertex   3.925353e-001 1.650000e-002 1.487769e-001
      vertex   3.944722e-001 1.650000e-002 1.501879e-001
      vertex   3.945821e-001 1.675000e-002 1.499633e-001
    endloop
  endfacet
  facet normal -1.972568e-001 7.016738e-001 6.846485e-001
    outer loop
      vertex   3.945821e-001 1.675000e-002 1.499633e-001
      vertex   3.944722e-001 1.650000e-002 1.501879e-001
      vertex   3.967749e-001 1.650000e-002 1.508513e-001
    endloop
  endfacet
  facet normal 4.880278e-002 7.016738e-001 7.108249e-001
    outer loop
      vertex   3.968014e-001 1.675000e-002 1.506027e-001
      vertex   3.967749e-001 1.650000e-002 1.508513e-001
      vertex   3.991656e-001 1.650000e-002 1.506871e-001
    endloop
  endfacet
  facet normal 2.889761e-001 7.016738e-001 6.512654e-001
    outer loop
      vertex   3.991055e-001 1.675000e-002 1.504445e-001
      vertex   3.991656e-001 1.650000e-002 1.506871e-001
      vertex   4.013560e-001 1.650000e-002 1.497152e-001
    endloop
  endfacet
  facet normal 4.942946e-001 7.016738e-001 5.131537e-001
    outer loop
      vertex   4.012165e-001 1.675000e-002 1.495078e-001
      vertex   4.013560e-001 1.650000e-002 1.497152e-001
      vertex   4.028799e-001 1.675000e-002 1.479056e-001
    endloop
  endfacet
  facet normal 2.889761e-001 7.016738e-001 6.512654e-001
    outer loop
      vertex   4.012165e-001 1.675000e-002 1.495078e-001
      vertex   3.991055e-001 1.675000e-002 1.504445e-001
      vertex   4.013560e-001 1.650000e-002 1.497152e-001
    endloop
  endfacet
  facet normal 4.942946e-001 7.016738e-001 5.131537e-001
    outer loop
      vertex   4.013560e-001 1.650000e-002 1.497152e-001
      vertex   4.030819e-001 1.650000e-002 1.480528e-001
      vertex   4.028799e-001 1.675000e-002 1.479056e-001
    endloop
  endfacet
  facet normal 6.399939e-001 7.016738e-001 3.131480e-001
    outer loop
      vertex   4.028799e-001 1.675000e-002 1.479056e-001
      vertex   4.030819e-001 1.650000e-002 1.480528e-001
      vertex   4.041351e-001 1.650000e-002 1.459003e-001
    endloop
  endfacet
  facet normal 7.085004e-001 7.016738e-001 7.537210e-002
    outer loop
      vertex   4.038949e-001 1.675000e-002 1.458311e-001
      vertex   4.041351e-001 1.650000e-002 1.459003e-001
      vertex   4.043886e-001 1.650000e-002 1.435174e-001
    endloop
  endfacet
  facet normal 6.915514e-001 7.016738e-001 -1.714948e-001
    outer loop
      vertex   4.041392e-001 1.675000e-002 1.435345e-001
      vertex   4.043886e-001 1.650000e-002 1.435174e-001
      vertex   4.038118e-001 1.650000e-002 1.411915e-001
    endloop
  endfacet
  facet normal 7.085004e-001 7.016738e-001 7.537210e-002
    outer loop
      vertex   4.041392e-001 1.675000e-002 1.435345e-001
      vertex   4.038949e-001 1.675000e-002 1.458311e-001
      vertex   4.043886e-001 1.650000e-002 1.435174e-001
    endloop
  endfacet
  facet normal 6.399939e-001 7.016738e-001 3.131480e-001
    outer loop
      vertex   4.038949e-001 1.675000e-002 1.458311e-001
      vertex   4.028799e-001 1.675000e-002 1.479056e-001
      vertex   4.041351e-001 1.650000e-002 1.459003e-001
    endloop
  endfacet
  facet normal 4.880278e-002 7.016738e-001 7.108249e-001
    outer loop
      vertex   3.991055e-001 1.675000e-002 1.504445e-001
      vertex   3.968014e-001 1.675000e-002 1.506027e-001
      vertex   3.991656e-001 1.650000e-002 1.506871e-001
    endloop
  endfacet
  facet normal -1.972568e-001 7.016738e-001 6.846485e-001
    outer loop
      vertex   3.968014e-001 1.675000e-002 1.506027e-001
      vertex   3.945821e-001 1.675000e-002 1.499633e-001
      vertex   3.967749e-001 1.650000e-002 1.508513e-001
    endloop
  endfacet
  facet normal -6.915514e-001 7.016738e-001 1.714948e-001
    outer loop
      vertex   3.914263e-001 1.675000e-002 1.466871e-001
      vertex   3.908705e-001 1.675000e-002 1.444455e-001
      vertex   3.911978e-001 1.650000e-002 1.467885e-001
    endloop
  endfacet
  facet normal -4.942946e-001 7.016738e-001 -5.131537e-001
    outer loop
      vertex   3.921298e-001 1.675000e-002 1.400744e-001
      vertex   3.937932e-001 1.675000e-002 1.384722e-001
      vertex   3.919278e-001 1.650000e-002 1.399272e-001
    endloop
  endfacet
  facet normal -2.889761e-001 7.016738e-001 -6.512654e-001
    outer loop
      vertex   3.937932e-001 1.675000e-002 1.384722e-001
      vertex   3.959042e-001 1.675000e-002 1.375355e-001
      vertex   3.936536e-001 1.650000e-002 1.382648e-001
    endloop
  endfacet
  facet normal 4.195244e-001 7.016738e-001 -5.758933e-001
    outer loop
      vertex   4.004276e-001 1.675000e-002 1.380167e-001
      vertex   4.022943e-001 1.675000e-002 1.393766e-001
      vertex   4.005374e-001 1.650000e-002 1.377921e-001
    endloop
  endfacet
  facet normal 3.276695e-001 9.335384e-001 -1.453918e-001
    outer loop
      vertex   4.038118e-001 1.650000e-002 1.411915e-001
      vertex   4.022943e-001 1.675000e-002 1.393766e-001
      vertex   4.041392e-001 1.675000e-002 1.435345e-001
    endloop
  endfacet
  facet normal -5.379388e-014 1.000000e+000 2.386914e-014
    outer loop
      vertex   4.041392e-001 1.675000e-002 1.435345e-001
      vertex   4.022943e-001 1.675000e-002 1.393766e-001
      vertex   3.908705e-001 1.675000e-002 1.444455e-001
    endloop
  endfacet
  facet normal -5.377328e-014 1.000000e+000 2.416917e-014
    outer loop
      vertex   3.914263e-001 1.675000e-002 1.466871e-001
      vertex   4.041392e-001 1.675000e-002 1.435345e-001
      vertex   3.908705e-001 1.675000e-002 1.444455e-001
    endloop
  endfacet
  facet normal -5.391585e-014 1.000000e+000 2.359424e-014
    outer loop
      vertex   3.914263e-001 1.675000e-002 1.466871e-001
      vertex   3.927154e-001 1.675000e-002 1.486034e-001
      vertex   4.041392e-001 1.675000e-002 1.435345e-001
    endloop
  endfacet
  facet normal -5.420756e-014 1.000000e+000 2.293681e-014
    outer loop
      vertex   4.041392e-001 1.675000e-002 1.435345e-001
      vertex   3.927154e-001 1.675000e-002 1.486034e-001
      vertex   4.038949e-001 1.675000e-002 1.458311e-001
    endloop
  endfacet
  facet normal -5.365247e-014 1.000000e+000 2.517522e-014
    outer loop
      vertex   4.038949e-001 1.675000e-002 1.458311e-001
      vertex   3.927154e-001 1.675000e-002 1.486034e-001
      vertex   3.945821e-001 1.675000e-002 1.499633e-001
    endloop
  endfacet
  facet normal -5.405287e-014 1.000000e+000 2.482541e-014
    outer loop
      vertex   4.028799e-001 1.675000e-002 1.479056e-001
      vertex   3.945821e-001 1.675000e-002 1.499633e-001
      vertex   3.968014e-001 1.675000e-002 1.506027e-001
    endloop
  endfacet
  facet normal -5.565978e-014 1.000000e+000 2.271590e-014
    outer loop
      vertex   4.012165e-001 1.675000e-002 1.495078e-001
      vertex   3.968014e-001 1.675000e-002 1.506027e-001
      vertex   3.991055e-001 1.675000e-002 1.504445e-001
    endloop
  endfacet
  facet normal -5.650980e-014 1.000000e+000 1.928824e-014
    outer loop
      vertex   4.012165e-001 1.675000e-002 1.495078e-001
      vertex   4.028799e-001 1.675000e-002 1.479056e-001
      vertex   3.968014e-001 1.675000e-002 1.506027e-001
    endloop
  endfacet
  facet normal -5.420756e-014 1.000000e+000 2.293681e-014
    outer loop
      vertex   3.908705e-001 1.675000e-002 1.444455e-001
      vertex   4.022943e-001 1.675000e-002 1.393766e-001
      vertex   3.911148e-001 1.675000e-002 1.421489e-001
    endloop
  endfacet
  facet normal -5.365247e-014 1.000000e+000 2.517522e-014
    outer loop
      vertex   3.911148e-001 1.675000e-002 1.421489e-001
      vertex   4.022943e-001 1.675000e-002 1.393766e-001
      vertex   4.004276e-001 1.675000e-002 1.380167e-001
    endloop
  endfacet
  facet normal -5.405287e-014 1.000000e+000 2.482541e-014
    outer loop
      vertex   3.921298e-001 1.675000e-002 1.400744e-001
      vertex   4.004276e-001 1.675000e-002 1.380167e-001
      vertex   3.982083e-001 1.675000e-002 1.373773e-001
    endloop
  endfacet
  facet normal -5.565978e-014 1.000000e+000 2.271590e-014
    outer loop
      vertex   3.937932e-001 1.675000e-002 1.384722e-001
      vertex   3.982083e-001 1.675000e-002 1.373773e-001
      vertex   3.959042e-001 1.675000e-002 1.375355e-001
    endloop
  endfacet
  facet normal -5.650980e-014 1.000000e+000 1.928824e-014
    outer loop
      vertex   3.937932e-001 1.675000e-002 1.384722e-001
      vertex   3.921298e-001 1.675000e-002 1.400744e-001
      vertex   3.982083e-001 1.675000e-002 1.373773e-001
    endloop
  endfacet
  facet normal -5.436352e-014 1.000000e+000 2.357274e-014
    outer loop
      vertex   3.921298e-001 1.675000e-002 1.400744e-001
      vertex   3.911148e-001 1.675000e-002 1.421489e-001
      vertex   4.004276e-001 1.675000e-002 1.380167e-001
    endloop
  endfacet
  facet normal -5.436352e-014 1.000000e+000 2.357274e-014
    outer loop
      vertex   4.028799e-001 1.675000e-002 1.479056e-001
      vertex   4.038949e-001 1.675000e-002 1.458311e-001
      vertex   3.945821e-001 1.675000e-002 1.499633e-001
    endloop
  endfacet
  facet normal 3.276695e-001 -9.335384e-001 -1.453918e-001
    outer loop
      vertex   4.038118e-001 -8.530000e-001 1.411915e-001
      vertex   4.041392e-001 -8.532500e-001 1.435345e-001
      vertex   4.022943e-001 -8.532500e-001 1.393766e-001
    endloop
  endfacet
  facet normal -0.000000e+000 -1.000000e+000 0.000000e+000
    outer loop
      vertex   4.022943e-001 -8.532500e-001 1.393766e-001
      vertex   4.041392e-001 -8.532500e-001 1.435345e-001
      vertex   4.004276e-001 -8.532500e-001 1.380167e-001
    endloop
  endfacet
  facet normal 0.000000e+000 -1.000000e+000 0.000000e+000
    outer loop
      vertex   4.004276e-001 -8.532500e-001 1.380167e-001
      vertex   4.041392e-001 -8.532500e-001 1.435345e-001
      vertex   4.038949e-001 -8.532500e-001 1.458311e-001
    endloop
  endfacet
  facet normal 5.735993e-014 -1.000000e+000 -2.545144e-014
    outer loop
      vertex   3.982083e-001 -8.532500e-001 1.373773e-001
      vertex   4.038949e-001 -8.532500e-001 1.458311e-001
      vertex   4.028799e-001 -8.532500e-001 1.479056e-001
    endloop
  endfacet
  facet normal 4.676024e-014 -1.000000e+000 -2.074821e-014
    outer loop
      vertex   3.959042e-001 -8.532500e-001 1.375355e-001
      vertex   4.028799e-001 -8.532500e-001 1.479056e-001
      vertex   4.012165e-001 -8.532500e-001 1.495078e-001
    endloop
  endfacet
  facet normal 8.788051e-014 -1.000000e+000 -3.899387e-014
    outer loop
      vertex   3.937932e-001 -8.532500e-001 1.384722e-001
      vertex   4.012165e-001 -8.532500e-001 1.495078e-001
      vertex   3.991055e-001 -8.532500e-001 1.504445e-001
    endloop
  endfacet
  facet normal 4.676024e-014 -1.000000e+000 -2.074821e-014
    outer loop
      vertex   3.921298e-001 -8.532500e-001 1.400744e-001
      vertex   3.991055e-001 -8.532500e-001 1.504445e-001
      vertex   3.968014e-001 -8.532500e-001 1.506027e-001
    endloop
  endfacet
  facet normal 5.735993e-014 -1.000000e+000 -2.545144e-014
    outer loop
      vertex   3.911148e-001 -8.532500e-001 1.421489e-001
      vertex   3.968014e-001 -8.532500e-001 1.506027e-001
      vertex   3.945821e-001 -8.532500e-001 1.499633e-001
    endloop
  endfacet
  facet normal -0.000000e+000 -1.000000e+000 0.000000e+000
    outer loop
      vertex   3.908705e-001 -8.532500e-001 1.444455e-001
      vertex   3.945821e-001 -8.532500e-001 1.499633e-001
      vertex   3.927154e-001 -8.532500e-001 1.486034e-001
    endloop
  endfacet
  facet normal 2.530418e-013 -1.000000e+000 -1.122784e-013
    outer loop
      vertex   3.914263e-001 -8.532500e-001 1.466871e-001
      vertex   3.908705e-001 -8.532500e-001 1.444455e-001
      vertex   3.927154e-001 -8.532500e-001 1.486034e-001
    endloop
  endfacet
  facet normal 0.000000e+000 -1.000000e+000 0.000000e+000
    outer loop
      vertex   3.908705e-001 -8.532500e-001 1.444455e-001
      vertex   3.911148e-001 -8.532500e-001 1.421489e-001
      vertex   3.945821e-001 -8.532500e-001 1.499633e-001
    endloop
  endfacet
  facet normal 5.735993e-014 -1.000000e+000 -2.545144e-014
    outer loop
      vertex   3.911148e-001 -8.532500e-001 1.421489e-001
      vertex   3.921298e-001 -8.532500e-001 1.400744e-001
      vertex   3.968014e-001 -8.532500e-001 1.506027e-001
    endloop
  endfacet
  facet normal 4.676024e-014 -1.000000e+000 -2.074821e-014
    outer loop
      vertex   3.921298e-001 -8.532500e-001 1.400744e-001
      vertex   3.937932e-001 -8.532500e-001 1.384722e-001
      vertex   3.991055e-001 -8.532500e-001 1.504445e-001
    endloop
  endfacet
  facet normal 8.788051e-014 -1.000000e+000 -3.899387e-014
    outer loop
      vertex   3.937932e-001 -8.532500e-001 1.384722e-001
      vertex   3.959042e-001 -8.532500e-001 1.375355e-001
      vertex   4.012165e-001 -8.532500e-001 1.495078e-001
    endloop
  endfacet
  facet normal 4.676024e-014 -1.000000e+000 -2.074821e-014
    outer loop
      vertex   3.959042e-001 -8.532500e-001 1.375355e-001
      vertex   3.982083e-001 -8.532500e-001 1.373773e-001
      vertex   4.028799e-001 -8.532500e-001 1.479056e-001
    endloop
  endfacet
  facet normal 5.735993e-014 -1.000000e+000 -2.545144e-014
    outer loop
      vertex   3.982083e-001 -8.532500e-001 1.373773e-001
      vertex   4.004276e-001 -8.532500e-001 1.380167e-001
      vertex   4.038949e-001 -8.532500e-001 1.458311e-001
    endloop
  endfacet
endsolid
