solid ascii
  facet normal 7.016738e-001 -3.611901e-001 -6.141625e-001
    outer loop
      vertex   9.397500e-001 -6.424775e-001 3.775006e-002
      vertex   9.397500e-001 -6.404119e-001 3.653527e-002
      vertex   9.400000e-001 -6.403245e-001 3.676950e-002
    endloop
  endfacet
  facet normal 7.016738e-001 -1.293518e-001 -7.006582e-001
    outer loop
      vertex   9.400000e-001 -6.403245e-001 3.676950e-002
      vertex   9.397500e-001 -6.404119e-001 3.653527e-002
      vertex   9.397500e-001 -6.380554e-001 3.610022e-002
    endloop
  endfacet
  facet normal 7.016738e-001 1.180883e-001 -7.026443e-001
    outer loop
      vertex   9.400000e-001 -6.380534e-001 3.635021e-002
      vertex   9.397500e-001 -6.380554e-001 3.610022e-002
      vertex   9.397500e-001 -6.356922e-001 3.649739e-002
    endloop
  endfacet
  facet normal 7.016738e-001 3.512852e-001 -6.198810e-001
    outer loop
      vertex   9.400000e-001 -6.357758e-001 3.673299e-002
      vertex   9.397500e-001 -6.356922e-001 3.649739e-002
      vertex   9.400000e-001 -6.337665e-001 3.787166e-002
    endloop
  endfacet
  facet normal 7.016738e-001 1.180883e-001 -7.026443e-001
    outer loop
      vertex   9.400000e-001 -6.357758e-001 3.673299e-002
      vertex   9.400000e-001 -6.380534e-001 3.635021e-002
      vertex   9.397500e-001 -6.356922e-001 3.649739e-002
    endloop
  endfacet
  facet normal 7.016738e-001 3.512852e-001 -6.198810e-001
    outer loop
      vertex   9.397500e-001 -6.356922e-001 3.649739e-002
      vertex   9.397500e-001 -6.336073e-001 3.767887e-002
      vertex   9.400000e-001 -6.337665e-001 3.787166e-002
    endloop
  endfacet
  facet normal 7.016738e-001 5.421119e-001 -4.623510e-001
    outer loop
      vertex   9.400000e-001 -6.337665e-001 3.787166e-002
      vertex   9.397500e-001 -6.336073e-001 3.767887e-002
      vertex   9.397500e-001 -6.320523e-001 3.950215e-002
    endloop
  endfacet
  facet normal 7.016738e-001 6.675519e-001 -2.490546e-001
    outer loop
      vertex   9.400000e-001 -6.322678e-001 3.962888e-002
      vertex   9.397500e-001 -6.320523e-001 3.950215e-002
      vertex   9.397500e-001 -6.312147e-001 4.174733e-002
    endloop
  endfacet
  facet normal 7.016738e-001 7.124753e-001 -5.718591e-003
    outer loop
      vertex   9.400000e-001 -6.314605e-001 4.179271e-002
      vertex   9.397500e-001 -6.312147e-001 4.174733e-002
      vertex   9.397500e-001 -6.311954e-001 4.414360e-002
    endloop
  endfacet
  facet normal 7.016738e-001 6.714637e-001 2.383072e-001
    outer loop
      vertex   9.400000e-001 -6.314420e-001 4.410216e-002
      vertex   9.397500e-001 -6.311954e-001 4.414360e-002
      vertex   9.400000e-001 -6.322144e-001 4.627867e-002
    endloop
  endfacet
  facet normal 7.016738e-001 7.124753e-001 -5.718591e-003
    outer loop
      vertex   9.400000e-001 -6.314420e-001 4.410216e-002
      vertex   9.400000e-001 -6.314605e-001 4.179271e-002
      vertex   9.397500e-001 -6.311954e-001 4.414360e-002
    endloop
  endfacet
  facet normal 7.016738e-001 6.714637e-001 2.383072e-001
    outer loop
      vertex   9.397500e-001 -6.311954e-001 4.414360e-002
      vertex   9.397500e-001 -6.319969e-001 4.640193e-002
      vertex   9.400000e-001 -6.322144e-001 4.627867e-002
    endloop
  endfacet
  facet normal 7.016738e-001 5.494636e-001 4.535896e-001
    outer loop
      vertex   9.400000e-001 -6.322144e-001 4.627867e-002
      vertex   9.397500e-001 -6.319969e-001 4.640193e-002
      vertex   9.397500e-001 -6.335225e-001 4.824994e-002
    endloop
  endfacet
  facet normal 7.016738e-001 3.611901e-001 6.141625e-001
    outer loop
      vertex   9.400000e-001 -6.336847e-001 4.805972e-002
      vertex   9.397500e-001 -6.335225e-001 4.824994e-002
      vertex   9.397500e-001 -6.355881e-001 4.946473e-002
    endloop
  endfacet
  facet normal 7.016738e-001 1.293518e-001 7.006582e-001
    outer loop
      vertex   9.400000e-001 -6.356755e-001 4.923050e-002
      vertex   9.397500e-001 -6.355881e-001 4.946473e-002
      vertex   9.400000e-001 -6.379466e-001 4.964979e-002
    endloop
  endfacet
  facet normal 7.016738e-001 3.611901e-001 6.141625e-001
    outer loop
      vertex   9.400000e-001 -6.356755e-001 4.923050e-002
      vertex   9.400000e-001 -6.336847e-001 4.805972e-002
      vertex   9.397500e-001 -6.355881e-001 4.946473e-002
    endloop
  endfacet
  facet normal 7.016738e-001 1.293518e-001 7.006582e-001
    outer loop
      vertex   9.397500e-001 -6.355881e-001 4.946473e-002
      vertex   9.397500e-001 -6.379446e-001 4.989978e-002
      vertex   9.400000e-001 -6.379466e-001 4.964979e-002
    endloop
  endfacet
  facet normal 7.016738e-001 -1.180883e-001 7.026443e-001
    outer loop
      vertex   9.400000e-001 -6.379466e-001 4.964979e-002
      vertex   9.397500e-001 -6.379446e-001 4.989978e-002
      vertex   9.397500e-001 -6.403078e-001 4.950261e-002
    endloop
  endfacet
  facet normal 7.016738e-001 -3.512852e-001 6.198810e-001
    outer loop
      vertex   9.400000e-001 -6.402242e-001 4.926701e-002
      vertex   9.397500e-001 -6.403078e-001 4.950261e-002
      vertex   9.397500e-001 -6.423927e-001 4.832113e-002
    endloop
  endfacet
  facet normal 7.016738e-001 -5.421119e-001 4.623510e-001
    outer loop
      vertex   9.400000e-001 -6.422335e-001 4.812834e-002
      vertex   9.397500e-001 -6.423927e-001 4.832113e-002
      vertex   9.397500e-001 -6.439477e-001 4.649785e-002
    endloop
  endfacet
  facet normal 7.016738e-001 -6.675519e-001 2.490546e-001
    outer loop
      vertex   9.400000e-001 -6.437322e-001 4.637112e-002
      vertex   9.397500e-001 -6.439477e-001 4.649785e-002
      vertex   9.400000e-001 -6.445395e-001 4.420729e-002
    endloop
  endfacet
  facet normal 7.016738e-001 -5.421119e-001 4.623510e-001
    outer loop
      vertex   9.400000e-001 -6.437322e-001 4.637112e-002
      vertex   9.400000e-001 -6.422335e-001 4.812834e-002
      vertex   9.397500e-001 -6.439477e-001 4.649785e-002
    endloop
  endfacet
  facet normal 7.016738e-001 -6.675519e-001 2.490546e-001
    outer loop
      vertex   9.397500e-001 -6.439477e-001 4.649785e-002
      vertex   9.397500e-001 -6.447853e-001 4.425267e-002
      vertex   9.400000e-001 -6.445395e-001 4.420729e-002
    endloop
  endfacet
  facet normal 7.016738e-001 -7.124753e-001 5.718591e-003
    outer loop
      vertex   9.400000e-001 -6.445395e-001 4.420729e-002
      vertex   9.397500e-001 -6.447853e-001 4.425267e-002
      vertex   9.397500e-001 -6.448046e-001 4.185640e-002
    endloop
  endfacet
  facet normal 7.016738e-001 -6.714637e-001 -2.383072e-001
    outer loop
      vertex   9.400000e-001 -6.445580e-001 4.189784e-002
      vertex   9.397500e-001 -6.448046e-001 4.185640e-002
      vertex   9.397500e-001 -6.440031e-001 3.959807e-002
    endloop
  endfacet
  facet normal 7.016738e-001 -5.494636e-001 -4.535896e-001
    outer loop
      vertex   9.400000e-001 -6.437856e-001 3.972133e-002
      vertex   9.397500e-001 -6.440031e-001 3.959807e-002
      vertex   9.397500e-001 -6.424775e-001 3.775006e-002
    endloop
  endfacet
  facet normal 7.016738e-001 -6.714637e-001 -2.383072e-001
    outer loop
      vertex   9.400000e-001 -6.437856e-001 3.972133e-002
      vertex   9.400000e-001 -6.445580e-001 4.189784e-002
      vertex   9.397500e-001 -6.440031e-001 3.959807e-002
    endloop
  endfacet
  facet normal 7.016738e-001 -7.124753e-001 5.718591e-003
    outer loop
      vertex   9.400000e-001 -6.445580e-001 4.189784e-002
      vertex   9.400000e-001 -6.445395e-001 4.420729e-002
      vertex   9.397500e-001 -6.448046e-001 4.185640e-002
    endloop
  endfacet
  facet normal 7.016738e-001 -3.512852e-001 6.198810e-001
    outer loop
      vertex   9.400000e-001 -6.422335e-001 4.812834e-002
      vertex   9.400000e-001 -6.402242e-001 4.926701e-002
      vertex   9.397500e-001 -6.423927e-001 4.832113e-002
    endloop
  endfacet
  facet normal 7.016738e-001 -1.180883e-001 7.026443e-001
    outer loop
      vertex   9.400000e-001 -6.402242e-001 4.926701e-002
      vertex   9.400000e-001 -6.379466e-001 4.964979e-002
      vertex   9.397500e-001 -6.403078e-001 4.950261e-002
    endloop
  endfacet
  facet normal 7.016738e-001 5.494636e-001 4.535896e-001
    outer loop
      vertex   9.400000e-001 -6.336847e-001 4.805972e-002
      vertex   9.400000e-001 -6.322144e-001 4.627867e-002
      vertex   9.397500e-001 -6.335225e-001 4.824994e-002
    endloop
  endfacet
  facet normal 7.016738e-001 6.675519e-001 -2.490546e-001
    outer loop
      vertex   9.400000e-001 -6.314605e-001 4.179271e-002
      vertex   9.400000e-001 -6.322678e-001 3.962888e-002
      vertex   9.397500e-001 -6.312147e-001 4.174733e-002
    endloop
  endfacet
  facet normal 7.016738e-001 5.421119e-001 -4.623510e-001
    outer loop
      vertex   9.400000e-001 -6.322678e-001 3.962888e-002
      vertex   9.400000e-001 -6.337665e-001 3.787166e-002
      vertex   9.397500e-001 -6.320523e-001 3.950215e-002
    endloop
  endfacet
  facet normal 7.016738e-001 -1.293518e-001 -7.006582e-001
    outer loop
      vertex   9.400000e-001 -6.380534e-001 3.635021e-002
      vertex   9.400000e-001 -6.403245e-001 3.676950e-002
      vertex   9.397500e-001 -6.380554e-001 3.610022e-002
    endloop
  endfacet
  facet normal 3.179508e-014 -7.711789e-001 -6.366185e-001
    outer loop
      vertex   1.025000e-002 -6.424775e-001 3.775006e-002
      vertex   9.397500e-001 -6.424775e-001 3.775006e-002
      vertex   1.025000e-002 -6.440031e-001 3.959807e-002
    endloop
  endfacet
  facet normal 3.179032e-014 -7.711789e-001 -6.366185e-001
    outer loop
      vertex   1.025000e-002 -6.440031e-001 3.959807e-002
      vertex   9.397500e-001 -6.424775e-001 3.775006e-002
      vertex   9.397500e-001 -6.440031e-001 3.959807e-002
    endloop
  endfacet
  facet normal 2.799597e-014 -9.424074e-001 -3.344670e-001
    outer loop
      vertex   9.397500e-001 -6.448046e-001 4.185640e-002
      vertex   1.025000e-002 -6.440031e-001 3.959807e-002
      vertex   9.397500e-001 -6.440031e-001 3.959807e-002
    endloop
  endfacet
  facet normal 2.799597e-014 -9.424074e-001 -3.344670e-001
    outer loop
      vertex   9.397500e-001 -6.448046e-001 4.185640e-002
      vertex   1.025000e-002 -6.448046e-001 4.185640e-002
      vertex   1.025000e-002 -6.440031e-001 3.959807e-002
    endloop
  endfacet
  facet normal 2.082489e-014 -9.999678e-001 8.026111e-003
    outer loop
      vertex   9.397500e-001 -6.448046e-001 4.185640e-002
      vertex   9.397500e-001 -6.447853e-001 4.425267e-002
      vertex   1.025000e-002 -6.448046e-001 4.185640e-002
    endloop
  endfacet
  facet normal 2.082489e-014 -9.999678e-001 8.026111e-003
    outer loop
      vertex   1.025000e-002 -6.448046e-001 4.185640e-002
      vertex   9.397500e-001 -6.447853e-001 4.425267e-002
      vertex   1.025000e-002 -6.447853e-001 4.425267e-002
    endloop
  endfacet
  facet normal 1.114202e-014 -9.369173e-001 3.495512e-001
    outer loop
      vertex   1.025000e-002 -6.447853e-001 4.425267e-002
      vertex   9.397500e-001 -6.447853e-001 4.425267e-002
      vertex   1.025000e-002 -6.439477e-001 4.649785e-002
    endloop
  endfacet
  facet normal 1.114206e-014 -9.369173e-001 3.495512e-001
    outer loop
      vertex   1.025000e-002 -6.439477e-001 4.649785e-002
      vertex   9.397500e-001 -6.447853e-001 4.425267e-002
      vertex   9.397500e-001 -6.439477e-001 4.649785e-002
    endloop
  endfacet
  facet normal 1.152584e-016 -7.608607e-001 6.489153e-001
    outer loop
      vertex   9.397500e-001 -6.423927e-001 4.832113e-002
      vertex   1.025000e-002 -6.439477e-001 4.649785e-002
      vertex   9.397500e-001 -6.439477e-001 4.649785e-002
    endloop
  endfacet
  facet normal 1.152584e-016 -7.608607e-001 6.489153e-001
    outer loop
      vertex   9.397500e-001 -6.423927e-001 4.832113e-002
      vertex   1.025000e-002 -6.423927e-001 4.832113e-002
      vertex   1.025000e-002 -6.439477e-001 4.649785e-002
    endloop
  endfacet
  facet normal -1.092540e-014 -4.930331e-001 8.700106e-001
    outer loop
      vertex   9.397500e-001 -6.423927e-001 4.832113e-002
      vertex   9.397500e-001 -6.403078e-001 4.950261e-002
      vertex   1.025000e-002 -6.423927e-001 4.832113e-002
    endloop
  endfacet
  facet normal -1.092541e-014 -4.930331e-001 8.700106e-001
    outer loop
      vertex   1.025000e-002 -6.423927e-001 4.832113e-002
      vertex   9.397500e-001 -6.403078e-001 4.950261e-002
      vertex   1.025000e-002 -6.403078e-001 4.950261e-002
    endloop
  endfacet
  facet normal -2.064831e-014 -1.657384e-001 9.861698e-001
    outer loop
      vertex   1.025000e-002 -6.403078e-001 4.950261e-002
      vertex   9.397500e-001 -6.403078e-001 4.950261e-002
      vertex   9.397500e-001 -6.379446e-001 4.989978e-002
    endloop
  endfacet
  facet normal -2.788071e-014 1.815468e-001 9.833823e-001
    outer loop
      vertex   1.025000e-002 -6.379446e-001 4.989978e-002
      vertex   9.397500e-001 -6.379446e-001 4.989978e-002
      vertex   1.025000e-002 -6.355881e-001 4.946473e-002
    endloop
  endfacet
  facet normal -2.064831e-014 -1.657384e-001 9.861698e-001
    outer loop
      vertex   1.025000e-002 -6.379446e-001 4.989978e-002
      vertex   1.025000e-002 -6.403078e-001 4.950261e-002
      vertex   9.397500e-001 -6.379446e-001 4.989978e-002
    endloop
  endfacet
  facet normal -2.788071e-014 1.815468e-001 9.833823e-001
    outer loop
      vertex   9.397500e-001 -6.379446e-001 4.989978e-002
      vertex   9.397500e-001 -6.355881e-001 4.946473e-002
      vertex   1.025000e-002 -6.355881e-001 4.946473e-002
    endloop
  endfacet
  facet normal -3.175030e-014 5.069347e-001 8.619845e-001
    outer loop
      vertex   1.025000e-002 -6.355881e-001 4.946473e-002
      vertex   9.397500e-001 -6.355881e-001 4.946473e-002
      vertex   9.397500e-001 -6.335225e-001 4.824994e-002
    endloop
  endfacet
  facet normal -3.179033e-014 7.711789e-001 6.366185e-001
    outer loop
      vertex   1.025000e-002 -6.335225e-001 4.824994e-002
      vertex   9.397500e-001 -6.335225e-001 4.824994e-002
      vertex   9.397500e-001 -6.319969e-001 4.640193e-002
    endloop
  endfacet
  facet normal -2.799597e-014 9.424074e-001 3.344670e-001
    outer loop
      vertex   1.025000e-002 -6.319969e-001 4.640193e-002
      vertex   9.397500e-001 -6.319969e-001 4.640193e-002
      vertex   1.025000e-002 -6.311954e-001 4.414360e-002
    endloop
  endfacet
  facet normal -3.179032e-014 7.711789e-001 6.366185e-001
    outer loop
      vertex   1.025000e-002 -6.319969e-001 4.640193e-002
      vertex   1.025000e-002 -6.335225e-001 4.824994e-002
      vertex   9.397500e-001 -6.319969e-001 4.640193e-002
    endloop
  endfacet
  facet normal -2.799597e-014 9.424074e-001 3.344670e-001
    outer loop
      vertex   9.397500e-001 -6.319969e-001 4.640193e-002
      vertex   9.397500e-001 -6.311954e-001 4.414360e-002
      vertex   1.025000e-002 -6.311954e-001 4.414360e-002
    endloop
  endfacet
  facet normal -2.082489e-014 9.999678e-001 -8.026111e-003
    outer loop
      vertex   1.025000e-002 -6.311954e-001 4.414360e-002
      vertex   9.397500e-001 -6.311954e-001 4.414360e-002
      vertex   9.397500e-001 -6.312147e-001 4.174733e-002
    endloop
  endfacet
  facet normal -1.114202e-014 9.369173e-001 -3.495512e-001
    outer loop
      vertex   1.025000e-002 -6.312147e-001 4.174733e-002
      vertex   9.397500e-001 -6.312147e-001 4.174733e-002
      vertex   9.397500e-001 -6.320523e-001 3.950215e-002
    endloop
  endfacet
  facet normal -1.152584e-016 7.608607e-001 -6.489153e-001
    outer loop
      vertex   1.025000e-002 -6.320523e-001 3.950215e-002
      vertex   9.397500e-001 -6.320523e-001 3.950215e-002
      vertex   9.397500e-001 -6.336073e-001 3.767887e-002
    endloop
  endfacet
  facet normal 1.092541e-014 4.930331e-001 -8.700106e-001
    outer loop
      vertex   1.025000e-002 -6.336073e-001 3.767887e-002
      vertex   9.397500e-001 -6.336073e-001 3.767887e-002
      vertex   1.025000e-002 -6.356922e-001 3.649739e-002
    endloop
  endfacet
  facet normal -1.152243e-016 7.608607e-001 -6.489153e-001
    outer loop
      vertex   1.025000e-002 -6.336073e-001 3.767887e-002
      vertex   1.025000e-002 -6.320523e-001 3.950215e-002
      vertex   9.397500e-001 -6.336073e-001 3.767887e-002
    endloop
  endfacet
  facet normal 1.092541e-014 4.930331e-001 -8.700106e-001
    outer loop
      vertex   9.397500e-001 -6.336073e-001 3.767887e-002
      vertex   9.397500e-001 -6.356922e-001 3.649739e-002
      vertex   1.025000e-002 -6.356922e-001 3.649739e-002
    endloop
  endfacet
  facet normal 2.064831e-014 1.657384e-001 -9.861698e-001
    outer loop
      vertex   1.025000e-002 -6.356922e-001 3.649739e-002
      vertex   9.397500e-001 -6.356922e-001 3.649739e-002
      vertex   9.397500e-001 -6.380554e-001 3.610022e-002
    endloop
  endfacet
  facet normal 2.788071e-014 -1.815468e-001 -9.833823e-001
    outer loop
      vertex   1.025000e-002 -6.380554e-001 3.610022e-002
      vertex   9.397500e-001 -6.380554e-001 3.610022e-002
      vertex   9.397500e-001 -6.404119e-001 3.653527e-002
    endloop
  endfacet
  facet normal 3.175030e-014 -5.069347e-001 -8.619845e-001
    outer loop
      vertex   1.025000e-002 -6.404119e-001 3.653527e-002
      vertex   9.397500e-001 -6.404119e-001 3.653527e-002
      vertex   1.025000e-002 -6.424775e-001 3.775006e-002
    endloop
  endfacet
  facet normal 2.788077e-014 -1.815468e-001 -9.833823e-001
    outer loop
      vertex   1.025000e-002 -6.404119e-001 3.653527e-002
      vertex   1.025000e-002 -6.380554e-001 3.610022e-002
      vertex   9.397500e-001 -6.404119e-001 3.653527e-002
    endloop
  endfacet
  facet normal 3.175673e-014 -5.069347e-001 -8.619845e-001
    outer loop
      vertex   9.397500e-001 -6.404119e-001 3.653527e-002
      vertex   9.397500e-001 -6.424775e-001 3.775006e-002
      vertex   1.025000e-002 -6.424775e-001 3.775006e-002
    endloop
  endfacet
  facet normal 2.064831e-014 1.657384e-001 -9.861698e-001
    outer loop
      vertex   1.025000e-002 -6.380554e-001 3.610022e-002
      vertex   1.025000e-002 -6.356922e-001 3.649739e-002
      vertex   9.397500e-001 -6.380554e-001 3.610022e-002
    endloop
  endfacet
  facet normal -1.114206e-014 9.369173e-001 -3.495512e-001
    outer loop
      vertex   1.025000e-002 -6.320523e-001 3.950215e-002
      vertex   1.025000e-002 -6.312147e-001 4.174733e-002
      vertex   9.397500e-001 -6.320523e-001 3.950215e-002
    endloop
  endfacet
  facet normal -2.082489e-014 9.999678e-001 -8.026111e-003
    outer loop
      vertex   1.025000e-002 -6.312147e-001 4.174733e-002
      vertex   1.025000e-002 -6.311954e-001 4.414360e-002
      vertex   9.397500e-001 -6.312147e-001 4.174733e-002
    endloop
  endfacet
  facet normal -3.175039e-014 5.069347e-001 8.619845e-001
    outer loop
      vertex   1.025000e-002 -6.335225e-001 4.824994e-002
      vertex   1.025000e-002 -6.355881e-001 4.946473e-002
      vertex   9.397500e-001 -6.335225e-001 4.824994e-002
    endloop
  endfacet
  facet normal -7.016738e-001 -5.494636e-001 -4.535896e-001
    outer loop
      vertex   1.025000e-002 -6.424775e-001 3.775006e-002
      vertex   1.025000e-002 -6.440031e-001 3.959807e-002
      vertex   1.000000e-002 -6.437856e-001 3.972133e-002
    endloop
  endfacet
  facet normal -7.016738e-001 -6.714637e-001 -2.383072e-001
    outer loop
      vertex   1.000000e-002 -6.437856e-001 3.972133e-002
      vertex   1.025000e-002 -6.440031e-001 3.959807e-002
      vertex   1.025000e-002 -6.448046e-001 4.185640e-002
    endloop
  endfacet
  facet normal -7.016738e-001 -7.124753e-001 5.718591e-003
    outer loop
      vertex   1.000000e-002 -6.445580e-001 4.189784e-002
      vertex   1.025000e-002 -6.448046e-001 4.185640e-002
      vertex   1.025000e-002 -6.447853e-001 4.425267e-002
    endloop
  endfacet
  facet normal -7.016738e-001 -6.675519e-001 2.490546e-001
    outer loop
      vertex   1.000000e-002 -6.445395e-001 4.420729e-002
      vertex   1.025000e-002 -6.447853e-001 4.425267e-002
      vertex   1.000000e-002 -6.437322e-001 4.637112e-002
    endloop
  endfacet
  facet normal -7.016738e-001 -7.124753e-001 5.718591e-003
    outer loop
      vertex   1.000000e-002 -6.445395e-001 4.420729e-002
      vertex   1.000000e-002 -6.445580e-001 4.189784e-002
      vertex   1.025000e-002 -6.447853e-001 4.425267e-002
    endloop
  endfacet
  facet normal -7.016738e-001 -6.675519e-001 2.490546e-001
    outer loop
      vertex   1.025000e-002 -6.447853e-001 4.425267e-002
      vertex   1.025000e-002 -6.439477e-001 4.649785e-002
      vertex   1.000000e-002 -6.437322e-001 4.637112e-002
    endloop
  endfacet
  facet normal -7.016738e-001 -5.421119e-001 4.623510e-001
    outer loop
      vertex   1.000000e-002 -6.437322e-001 4.637112e-002
      vertex   1.025000e-002 -6.439477e-001 4.649785e-002
      vertex   1.025000e-002 -6.423927e-001 4.832113e-002
    endloop
  endfacet
  facet normal -7.016738e-001 -3.512852e-001 6.198810e-001
    outer loop
      vertex   1.000000e-002 -6.422335e-001 4.812834e-002
      vertex   1.025000e-002 -6.423927e-001 4.832113e-002
      vertex   1.025000e-002 -6.403078e-001 4.950261e-002
    endloop
  endfacet
  facet normal -7.016738e-001 -1.180883e-001 7.026443e-001
    outer loop
      vertex   1.000000e-002 -6.402242e-001 4.926701e-002
      vertex   1.025000e-002 -6.403078e-001 4.950261e-002
      vertex   1.025000e-002 -6.379446e-001 4.989978e-002
    endloop
  endfacet
  facet normal -7.016738e-001 1.293518e-001 7.006582e-001
    outer loop
      vertex   1.000000e-002 -6.379466e-001 4.964979e-002
      vertex   1.025000e-002 -6.379446e-001 4.989978e-002
      vertex   1.000000e-002 -6.356755e-001 4.923050e-002
    endloop
  endfacet
  facet normal -7.016738e-001 -1.180883e-001 7.026443e-001
    outer loop
      vertex   1.000000e-002 -6.379466e-001 4.964979e-002
      vertex   1.000000e-002 -6.402242e-001 4.926701e-002
      vertex   1.025000e-002 -6.379446e-001 4.989978e-002
    endloop
  endfacet
  facet normal -7.016738e-001 1.293518e-001 7.006582e-001
    outer loop
      vertex   1.025000e-002 -6.379446e-001 4.989978e-002
      vertex   1.025000e-002 -6.355881e-001 4.946473e-002
      vertex   1.000000e-002 -6.356755e-001 4.923050e-002
    endloop
  endfacet
  facet normal -7.016738e-001 3.611901e-001 6.141625e-001
    outer loop
      vertex   1.000000e-002 -6.356755e-001 4.923050e-002
      vertex   1.025000e-002 -6.355881e-001 4.946473e-002
      vertex   1.025000e-002 -6.335225e-001 4.824994e-002
    endloop
  endfacet
  facet normal -7.016738e-001 5.494636e-001 4.535896e-001
    outer loop
      vertex   1.000000e-002 -6.336847e-001 4.805972e-002
      vertex   1.025000e-002 -6.335225e-001 4.824994e-002
      vertex   1.025000e-002 -6.319969e-001 4.640193e-002
    endloop
  endfacet
  facet normal -7.016738e-001 6.714637e-001 2.383072e-001
    outer loop
      vertex   1.000000e-002 -6.322144e-001 4.627867e-002
      vertex   1.025000e-002 -6.319969e-001 4.640193e-002
      vertex   1.000000e-002 -6.314420e-001 4.410216e-002
    endloop
  endfacet
  facet normal -7.016738e-001 5.494636e-001 4.535896e-001
    outer loop
      vertex   1.000000e-002 -6.322144e-001 4.627867e-002
      vertex   1.000000e-002 -6.336847e-001 4.805972e-002
      vertex   1.025000e-002 -6.319969e-001 4.640193e-002
    endloop
  endfacet
  facet normal -7.016738e-001 6.714637e-001 2.383072e-001
    outer loop
      vertex   1.025000e-002 -6.319969e-001 4.640193e-002
      vertex   1.025000e-002 -6.311954e-001 4.414360e-002
      vertex   1.000000e-002 -6.314420e-001 4.410216e-002
    endloop
  endfacet
  facet normal -7.016738e-001 7.124753e-001 -5.718591e-003
    outer loop
      vertex   1.000000e-002 -6.314420e-001 4.410216e-002
      vertex   1.025000e-002 -6.311954e-001 4.414360e-002
      vertex   1.025000e-002 -6.312147e-001 4.174733e-002
    endloop
  endfacet
  facet normal -7.016738e-001 6.675519e-001 -2.490546e-001
    outer loop
      vertex   1.000000e-002 -6.314605e-001 4.179271e-002
      vertex   1.025000e-002 -6.312147e-001 4.174733e-002
      vertex   1.025000e-002 -6.320523e-001 3.950215e-002
    endloop
  endfacet
  facet normal -7.016738e-001 5.421119e-001 -4.623510e-001
    outer loop
      vertex   1.000000e-002 -6.322678e-001 3.962888e-002
      vertex   1.025000e-002 -6.320523e-001 3.950215e-002
      vertex   1.025000e-002 -6.336073e-001 3.767887e-002
    endloop
  endfacet
  facet normal -7.016738e-001 3.512852e-001 -6.198810e-001
    outer loop
      vertex   1.000000e-002 -6.337665e-001 3.787166e-002
      vertex   1.025000e-002 -6.336073e-001 3.767887e-002
      vertex   1.000000e-002 -6.357758e-001 3.673299e-002
    endloop
  endfacet
  facet normal -7.016738e-001 5.421119e-001 -4.623510e-001
    outer loop
      vertex   1.000000e-002 -6.337665e-001 3.787166e-002
      vertex   1.000000e-002 -6.322678e-001 3.962888e-002
      vertex   1.025000e-002 -6.336073e-001 3.767887e-002
    endloop
  endfacet
  facet normal -7.016738e-001 3.512852e-001 -6.198810e-001
    outer loop
      vertex   1.025000e-002 -6.336073e-001 3.767887e-002
      vertex   1.025000e-002 -6.356922e-001 3.649739e-002
      vertex   1.000000e-002 -6.357758e-001 3.673299e-002
    endloop
  endfacet
  facet normal -7.016738e-001 1.180883e-001 -7.026443e-001
    outer loop
      vertex   1.000000e-002 -6.357758e-001 3.673299e-002
      vertex   1.025000e-002 -6.356922e-001 3.649739e-002
      vertex   1.025000e-002 -6.380554e-001 3.610022e-002
    endloop
  endfacet
  facet normal -7.016738e-001 -1.293518e-001 -7.006582e-001
    outer loop
      vertex   1.000000e-002 -6.380534e-001 3.635021e-002
      vertex   1.025000e-002 -6.380554e-001 3.610022e-002
      vertex   1.025000e-002 -6.404119e-001 3.653527e-002
    endloop
  endfacet
  facet normal -7.016738e-001 -3.611901e-001 -6.141625e-001
    outer loop
      vertex   1.000000e-002 -6.403245e-001 3.676950e-002
      vertex   1.025000e-002 -6.404119e-001 3.653527e-002
      vertex   1.025000e-002 -6.424775e-001 3.775006e-002
    endloop
  endfacet
  facet normal -7.016738e-001 -1.293518e-001 -7.006582e-001
    outer loop
      vertex   1.000000e-002 -6.403245e-001 3.676950e-002
      vertex   1.000000e-002 -6.380534e-001 3.635021e-002
      vertex   1.025000e-002 -6.404119e-001 3.653527e-002
    endloop
  endfacet
  facet normal -7.016738e-001 1.180883e-001 -7.026443e-001
    outer loop
      vertex   1.000000e-002 -6.380534e-001 3.635021e-002
      vertex   1.000000e-002 -6.357758e-001 3.673299e-002
      vertex   1.025000e-002 -6.380554e-001 3.610022e-002
    endloop
  endfacet
  facet normal -7.016738e-001 6.675519e-001 -2.490546e-001
    outer loop
      vertex   1.000000e-002 -6.322678e-001 3.962888e-002
      vertex   1.000000e-002 -6.314605e-001 4.179271e-002
      vertex   1.025000e-002 -6.320523e-001 3.950215e-002
    endloop
  endfacet
  facet normal -7.016738e-001 7.124753e-001 -5.718591e-003
    outer loop
      vertex   1.000000e-002 -6.314605e-001 4.179271e-002
      vertex   1.000000e-002 -6.314420e-001 4.410216e-002
      vertex   1.025000e-002 -6.312147e-001 4.174733e-002
    endloop
  endfacet
  facet normal -7.016738e-001 3.611901e-001 6.141625e-001
    outer loop
      vertex   1.000000e-002 -6.336847e-001 4.805972e-002
      vertex   1.000000e-002 -6.356755e-001 4.923050e-002
      vertex   1.025000e-002 -6.335225e-001 4.824994e-002
    endloop
  endfacet
  facet normal -7.016738e-001 -3.512852e-001 6.198810e-001
    outer loop
      vertex   1.000000e-002 -6.402242e-001 4.926701e-002
      vertex   1.000000e-002 -6.422335e-001 4.812834e-002
      vertex   1.025000e-002 -6.403078e-001 4.950261e-002
    endloop
  endfacet
  facet normal -7.016738e-001 -5.421119e-001 4.623510e-001
    outer loop
      vertex   1.000000e-002 -6.422335e-001 4.812834e-002
      vertex   1.000000e-002 -6.437322e-001 4.637112e-002
      vertex   1.025000e-002 -6.423927e-001 4.832113e-002
    endloop
  endfacet
  facet normal -7.016738e-001 -6.714637e-001 -2.383072e-001
    outer loop
      vertex   1.000000e-002 -6.445580e-001 4.189784e-002
      vertex   1.000000e-002 -6.437856e-001 3.972133e-002
      vertex   1.025000e-002 -6.448046e-001 4.185640e-002
    endloop
  endfacet
  facet normal -9.335384e-001 -2.326215e-001 -2.727514e-001
    outer loop
      vertex   1.025000e-002 -6.424775e-001 3.775006e-002
      vertex   1.000000e-002 -6.437856e-001 3.972133e-002
      vertex   1.000000e-002 -6.403245e-001 3.676950e-002
    endloop
  endfacet
  facet normal -1.000000e+000 -2.089627e-014 -2.450112e-014
    outer loop
      vertex   1.000000e-002 -6.403245e-001 3.676950e-002
      vertex   1.000000e-002 -6.437856e-001 3.972133e-002
      vertex   1.000000e-002 -6.356755e-001 4.923050e-002
    endloop
  endfacet
  facet normal -1.000000e+000 -2.129314e-014 -2.435305e-014
    outer loop
      vertex   1.000000e-002 -6.336847e-001 4.805972e-002
      vertex   1.000000e-002 -6.403245e-001 3.676950e-002
      vertex   1.000000e-002 -6.356755e-001 4.923050e-002
    endloop
  endfacet
  facet normal -1.000000e+000 -2.057398e-014 -2.477599e-014
    outer loop
      vertex   1.000000e-002 -6.336847e-001 4.805972e-002
      vertex   1.000000e-002 -6.322144e-001 4.627867e-002
      vertex   1.000000e-002 -6.403245e-001 3.676950e-002
    endloop
  endfacet
  facet normal -1.000000e+000 -2.060859e-014 -2.474647e-014
    outer loop
      vertex   1.000000e-002 -6.403245e-001 3.676950e-002
      vertex   1.000000e-002 -6.322144e-001 4.627867e-002
      vertex   1.000000e-002 -6.380534e-001 3.635021e-002
    endloop
  endfacet
  facet normal -1.000000e+000 -2.134549e-014 -2.431310e-014
    outer loop
      vertex   1.000000e-002 -6.380534e-001 3.635021e-002
      vertex   1.000000e-002 -6.322144e-001 4.627867e-002
      vertex   1.000000e-002 -6.314420e-001 4.410216e-002
    endloop
  endfacet
  facet normal -1.000000e+000 -2.098096e-014 -2.461930e-014
    outer loop
      vertex   1.000000e-002 -6.357758e-001 3.673299e-002
      vertex   1.000000e-002 -6.314420e-001 4.410216e-002
      vertex   1.000000e-002 -6.314605e-001 4.179271e-002
    endloop
  endfacet
  facet normal -1.000000e+000 -2.536696e-014 -2.180189e-014
    outer loop
      vertex   1.000000e-002 -6.337665e-001 3.787166e-002
      vertex   1.000000e-002 -6.314605e-001 4.179271e-002
      vertex   1.000000e-002 -6.322678e-001 3.962888e-002
    endloop
  endfacet
  facet normal -1.000000e+000 -2.187985e-014 -2.385267e-014
    outer loop
      vertex   1.000000e-002 -6.337665e-001 3.787166e-002
      vertex   1.000000e-002 -6.357758e-001 3.673299e-002
      vertex   1.000000e-002 -6.314605e-001 4.179271e-002
    endloop
  endfacet
  facet normal -1.000000e+000 -2.060859e-014 -2.474647e-014
    outer loop
      vertex   1.000000e-002 -6.356755e-001 4.923050e-002
      vertex   1.000000e-002 -6.437856e-001 3.972133e-002
      vertex   1.000000e-002 -6.379466e-001 4.964979e-002
    endloop
  endfacet
  facet normal -1.000000e+000 -2.134549e-014 -2.431310e-014
    outer loop
      vertex   1.000000e-002 -6.379466e-001 4.964979e-002
      vertex   1.000000e-002 -6.437856e-001 3.972133e-002
      vertex   1.000000e-002 -6.445580e-001 4.189784e-002
    endloop
  endfacet
  facet normal -1.000000e+000 -2.098096e-014 -2.461930e-014
    outer loop
      vertex   1.000000e-002 -6.402242e-001 4.926701e-002
      vertex   1.000000e-002 -6.445580e-001 4.189784e-002
      vertex   1.000000e-002 -6.445395e-001 4.420729e-002
    endloop
  endfacet
  facet normal -1.000000e+000 -2.536696e-014 -2.180189e-014
    outer loop
      vertex   1.000000e-002 -6.422335e-001 4.812834e-002
      vertex   1.000000e-002 -6.445395e-001 4.420729e-002
      vertex   1.000000e-002 -6.437322e-001 4.637112e-002
    endloop
  endfacet
  facet normal -1.000000e+000 -2.187985e-014 -2.385267e-014
    outer loop
      vertex   1.000000e-002 -6.422335e-001 4.812834e-002
      vertex   1.000000e-002 -6.402242e-001 4.926701e-002
      vertex   1.000000e-002 -6.445395e-001 4.420729e-002
    endloop
  endfacet
  facet normal -1.000000e+000 -2.099869e-014 -2.460888e-014
    outer loop
      vertex   1.000000e-002 -6.402242e-001 4.926701e-002
      vertex   1.000000e-002 -6.379466e-001 4.964979e-002
      vertex   1.000000e-002 -6.445580e-001 4.189784e-002
    endloop
  endfacet
  facet normal -1.000000e+000 -2.099869e-014 -2.460888e-014
    outer loop
      vertex   1.000000e-002 -6.357758e-001 3.673299e-002
      vertex   1.000000e-002 -6.380534e-001 3.635021e-002
      vertex   1.000000e-002 -6.314420e-001 4.410216e-002
    endloop
  endfacet
  facet normal 9.335384e-001 -2.326215e-001 -2.727514e-001
    outer loop
      vertex   9.397500e-001 -6.424775e-001 3.775006e-002
      vertex   9.400000e-001 -6.403245e-001 3.676950e-002
      vertex   9.400000e-001 -6.437856e-001 3.972133e-002
    endloop
  endfacet
  facet normal 1.000000e+000 6.238876e-014 7.315154e-014
    outer loop
      vertex   9.400000e-001 -6.437856e-001 3.972133e-002
      vertex   9.400000e-001 -6.403245e-001 3.676950e-002
      vertex   9.400000e-001 -6.445580e-001 4.189784e-002
    endloop
  endfacet
  facet normal 1.000000e+000 6.238876e-014 7.315154e-014
    outer loop
      vertex   9.400000e-001 -6.445580e-001 4.189784e-002
      vertex   9.400000e-001 -6.403245e-001 3.676950e-002
      vertex   9.400000e-001 -6.380534e-001 3.635021e-002
    endloop
  endfacet
  facet normal 1.000000e+000 -0.000000e+000 0.000000e+000
    outer loop
      vertex   9.400000e-001 -6.445395e-001 4.420729e-002
      vertex   9.400000e-001 -6.380534e-001 3.635021e-002
      vertex   9.400000e-001 -6.357758e-001 3.673299e-002
    endloop
  endfacet
  facet normal 1.000000e+000 3.319637e-014 3.892312e-014
    outer loop
      vertex   9.400000e-001 -6.437322e-001 4.637112e-002
      vertex   9.400000e-001 -6.357758e-001 3.673299e-002
      vertex   9.400000e-001 -6.337665e-001 3.787166e-002
    endloop
  endfacet
  facet normal 1.000000e+000 -0.000000e+000 0.000000e+000
    outer loop
      vertex   9.400000e-001 -6.422335e-001 4.812834e-002
      vertex   9.400000e-001 -6.337665e-001 3.787166e-002
      vertex   9.400000e-001 -6.322678e-001 3.962888e-002
    endloop
  endfacet
  facet normal 1.000000e+000 3.319637e-014 3.892312e-014
    outer loop
      vertex   9.400000e-001 -6.402242e-001 4.926701e-002
      vertex   9.400000e-001 -6.322678e-001 3.962888e-002
      vertex   9.400000e-001 -6.314605e-001 4.179271e-002
    endloop
  endfacet
  facet normal 1.000000e+000 -0.000000e+000 0.000000e+000
    outer loop
      vertex   9.400000e-001 -6.379466e-001 4.964979e-002
      vertex   9.400000e-001 -6.314605e-001 4.179271e-002
      vertex   9.400000e-001 -6.314420e-001 4.410216e-002
    endloop
  endfacet
  facet normal 1.000000e+000 6.238876e-014 7.315154e-014
    outer loop
      vertex   9.400000e-001 -6.356755e-001 4.923050e-002
      vertex   9.400000e-001 -6.314420e-001 4.410216e-002
      vertex   9.400000e-001 -6.322144e-001 4.627867e-002
    endloop
  endfacet
  facet normal 1.000000e+000 0.000000e+000 0.000000e+000
    outer loop
      vertex   9.400000e-001 -6.336847e-001 4.805972e-002
      vertex   9.400000e-001 -6.356755e-001 4.923050e-002
      vertex   9.400000e-001 -6.322144e-001 4.627867e-002
    endloop
  endfacet
  facet normal 1.000000e+000 6.238876e-014 7.315154e-014
    outer loop
      vertex   9.400000e-001 -6.356755e-001 4.923050e-002
      vertex   9.400000e-001 -6.379466e-001 4.964979e-002
      vertex   9.400000e-001 -6.314420e-001 4.410216e-002
    endloop
  endfacet
  facet normal 1.000000e+000 0.000000e+000 0.000000e+000
    outer loop
      vertex   9.400000e-001 -6.379466e-001 4.964979e-002
      vertex   9.400000e-001 -6.402242e-001 4.926701e-002
      vertex   9.400000e-001 -6.314605e-001 4.179271e-002
    endloop
  endfacet
  facet normal 1.000000e+000 3.319637e-014 3.892312e-014
    outer loop
      vertex   9.400000e-001 -6.402242e-001 4.926701e-002
      vertex   9.400000e-001 -6.422335e-001 4.812834e-002
      vertex   9.400000e-001 -6.322678e-001 3.962888e-002
    endloop
  endfacet
  facet normal 1.000000e+000 0.000000e+000 0.000000e+000
    outer loop
      vertex   9.400000e-001 -6.422335e-001 4.812834e-002
      vertex   9.400000e-001 -6.437322e-001 4.637112e-002
      vertex   9.400000e-001 -6.337665e-001 3.787166e-002
    endloop
  endfacet
  facet normal 1.000000e+000 3.319637e-014 3.892312e-014
    outer loop
      vertex   9.400000e-001 -6.437322e-001 4.637112e-002
      vertex   9.400000e-001 -6.445395e-001 4.420729e-002
      vertex   9.400000e-001 -6.357758e-001 3.673299e-002
    endloop
  endfacet
  facet normal 1.000000e+000 0.000000e+000 0.000000e+000
    outer loop
      vertex   9.400000e-001 -6.445395e-001 4.420729e-002
      vertex   9.400000e-001 -6.445580e-001 4.189784e-002
      vertex   9.400000e-001 -6.380534e-001 3.635021e-002
    endloop
  endfacet
endsolid
