solid ascii
  facet normal -1.000000e+000 0.000000e+000 -0.000000e+000
    outer loop
      vertex   8.610000e-001 -5.715000e-001 1.387779e-017
      vertex   8.610000e-001 -5.665000e-001 1.387779e-017
      vertex   8.610000e-001 -5.715000e-001 -1.590000e-001
    endloop
  endfacet
  facet normal -1.000000e+000 0.000000e+000 0.000000e+000
    outer loop
      vertex   8.610000e-001 -5.715000e-001 -1.590000e-001
      vertex   8.610000e-001 -5.665000e-001 1.387779e-017
      vertex   8.610000e-001 -5.665000e-001 -1.590000e-001
    endloop
  endfacet
  facet normal 1.564345e-001 -9.876883e-001 -4.060964e-016
    outer loop
      vertex   9.450000e-001 -7.065000e-001 -1.590000e-001
      vertex   9.465451e-001 -7.062553e-001 -1.590000e-001
      vertex   9.450000e-001 -7.065000e-001 1.110000e-001
    endloop
  endfacet
  facet normal 1.564345e-001 -9.876883e-001 -4.061312e-016
    outer loop
      vertex   9.450000e-001 -7.065000e-001 1.110000e-001
      vertex   9.465451e-001 -7.062553e-001 -1.590000e-001
      vertex   9.465451e-001 -7.062553e-001 1.110000e-001
    endloop
  endfacet
  facet normal 4.539905e-001 -8.910065e-001 -3.663763e-016
    outer loop
      vertex   9.465451e-001 -7.062553e-001 1.110000e-001
      vertex   9.465451e-001 -7.062553e-001 -1.590000e-001
      vertex   9.479389e-001 -7.055451e-001 -1.590000e-001
    endloop
  endfacet
  facet normal 7.071068e-001 -7.071068e-001 -2.907579e-016
    outer loop
      vertex   9.479389e-001 -7.055451e-001 1.110000e-001
      vertex   9.479389e-001 -7.055451e-001 -1.590000e-001
      vertex   9.490451e-001 -7.044389e-001 1.110000e-001
    endloop
  endfacet
  facet normal 4.539905e-001 -8.910065e-001 -3.664895e-016
    outer loop
      vertex   9.479389e-001 -7.055451e-001 1.110000e-001
      vertex   9.465451e-001 -7.062553e-001 1.110000e-001
      vertex   9.479389e-001 -7.055451e-001 -1.590000e-001
    endloop
  endfacet
  facet normal 7.071068e-001 -7.071068e-001 -2.907579e-016
    outer loop
      vertex   9.479389e-001 -7.055451e-001 -1.590000e-001
      vertex   9.490451e-001 -7.044389e-001 -1.590000e-001
      vertex   9.490451e-001 -7.044389e-001 1.110000e-001
    endloop
  endfacet
  facet normal 8.910065e-001 -4.539905e-001 -1.866780e-016
    outer loop
      vertex   9.490451e-001 -7.044389e-001 1.110000e-001
      vertex   9.490451e-001 -7.044389e-001 -1.590000e-001
      vertex   9.497553e-001 -7.030451e-001 -1.590000e-001
    endloop
  endfacet
  facet normal 9.876883e-001 -1.564345e-001 -6.432487e-017
    outer loop
      vertex   9.497553e-001 -7.030451e-001 1.110000e-001
      vertex   9.497553e-001 -7.030451e-001 -1.590000e-001
      vertex   9.500000e-001 -7.015000e-001 -1.590000e-001
    endloop
  endfacet
  facet normal 9.876883e-001 -1.564345e-001 -6.429859e-017
    outer loop
      vertex   9.500000e-001 -7.015000e-001 1.110000e-001
      vertex   9.497553e-001 -7.030451e-001 1.110000e-001
      vertex   9.500000e-001 -7.015000e-001 -1.590000e-001
    endloop
  endfacet
  facet normal 8.910065e-001 -4.539905e-001 -1.870049e-016
    outer loop
      vertex   9.497553e-001 -7.030451e-001 1.110000e-001
      vertex   9.490451e-001 -7.044389e-001 1.110000e-001
      vertex   9.497553e-001 -7.030451e-001 -1.590000e-001
    endloop
  endfacet
  facet normal 0.000000e+000 0.000000e+000 1.000000e+000
    outer loop
      vertex   9.465451e-001 -7.062553e-001 1.110000e-001
      vertex   9.450000e-001 -7.015000e-001 1.110000e-001
      vertex   9.450000e-001 -7.065000e-001 1.110000e-001
    endloop
  endfacet
  facet normal 0.000000e+000 -0.000000e+000 1.000000e+000
    outer loop
      vertex   9.465451e-001 -7.062553e-001 1.110000e-001
      vertex   9.479389e-001 -7.055451e-001 1.110000e-001
      vertex   9.450000e-001 -7.015000e-001 1.110000e-001
    endloop
  endfacet
  facet normal -0.000000e+000 0.000000e+000 1.000000e+000
    outer loop
      vertex   9.450000e-001 -7.015000e-001 1.110000e-001
      vertex   9.479389e-001 -7.055451e-001 1.110000e-001
      vertex   9.490451e-001 -7.044389e-001 1.110000e-001
    endloop
  endfacet
  facet normal 0.000000e+000 0.000000e+000 1.000000e+000
    outer loop
      vertex   9.497553e-001 -7.030451e-001 1.110000e-001
      vertex   9.450000e-001 -7.015000e-001 1.110000e-001
      vertex   9.490451e-001 -7.044389e-001 1.110000e-001
    endloop
  endfacet
  facet normal 0.000000e+000 -0.000000e+000 1.000000e+000
    outer loop
      vertex   9.497553e-001 -7.030451e-001 1.110000e-001
      vertex   9.500000e-001 -7.015000e-001 1.110000e-001
      vertex   9.450000e-001 -7.015000e-001 1.110000e-001
    endloop
  endfacet
  facet normal 0.000000e+000 -2.135044e-016 1.000000e+000
    outer loop
      vertex   9.450000e-001 -7.015000e-001 1.110000e-001
      vertex   9.500000e-001 -7.015000e-001 1.110000e-001
      vertex   9.450000e-001 -5.715000e-001 1.110000e-001
    endloop
  endfacet
  facet normal 0.000000e+000 -2.135044e-016 1.000000e+000
    outer loop
      vertex   9.450000e-001 -5.715000e-001 1.110000e-001
      vertex   9.500000e-001 -7.015000e-001 1.110000e-001
      vertex   9.500000e-001 -5.715000e-001 1.110000e-001
    endloop
  endfacet
  facet normal -0.000000e+000 0.000000e+000 1.000000e+000
    outer loop
      vertex   9.497553e-001 -5.699549e-001 1.110000e-001
      vertex   9.450000e-001 -5.715000e-001 1.110000e-001
      vertex   9.500000e-001 -5.715000e-001 1.110000e-001
    endloop
  endfacet
  facet normal 0.000000e+000 0.000000e+000 1.000000e+000
    outer loop
      vertex   9.497553e-001 -5.699549e-001 1.110000e-001
      vertex   9.490451e-001 -5.685611e-001 1.110000e-001
      vertex   9.450000e-001 -5.715000e-001 1.110000e-001
    endloop
  endfacet
  facet normal 0.000000e+000 -0.000000e+000 1.000000e+000
    outer loop
      vertex   9.450000e-001 -5.715000e-001 1.110000e-001
      vertex   9.490451e-001 -5.685611e-001 1.110000e-001
      vertex   9.479389e-001 -5.674549e-001 1.110000e-001
    endloop
  endfacet
  facet normal -0.000000e+000 0.000000e+000 1.000000e+000
    outer loop
      vertex   9.465451e-001 -5.667447e-001 1.110000e-001
      vertex   9.450000e-001 -5.715000e-001 1.110000e-001
      vertex   9.479389e-001 -5.674549e-001 1.110000e-001
    endloop
  endfacet
  facet normal 0.000000e+000 0.000000e+000 1.000000e+000
    outer loop
      vertex   9.465451e-001 -5.667447e-001 1.110000e-001
      vertex   9.450000e-001 -5.665000e-001 1.110000e-001
      vertex   9.450000e-001 -5.715000e-001 1.110000e-001
    endloop
  endfacet
  facet normal 0.000000e+000 -0.000000e+000 1.000000e+000
    outer loop
      vertex   9.450000e-001 -5.715000e-001 1.110000e-001
      vertex   9.450000e-001 -5.665000e-001 1.110000e-001
      vertex   9.000000e-001 -5.665000e-001 1.110000e-001
    endloop
  endfacet
  facet normal -0.000000e+000 -0.000000e+000 1.000000e+000
    outer loop
      vertex   9.000000e-001 -5.715000e-001 1.110000e-001
      vertex   9.450000e-001 -5.715000e-001 1.110000e-001
      vertex   9.000000e-001 -5.665000e-001 1.110000e-001
    endloop
  endfacet
  facet normal 0.000000e+000 0.000000e+000 1.000000e+000
    outer loop
      vertex   9.450000e-001 -7.015000e-001 1.110000e-001
      vertex   9.000000e-001 -7.015000e-001 1.110000e-001
      vertex   9.450000e-001 -7.065000e-001 1.110000e-001
    endloop
  endfacet
  facet normal 0.000000e+000 0.000000e+000 1.000000e+000
    outer loop
      vertex   9.450000e-001 -7.065000e-001 1.110000e-001
      vertex   9.000000e-001 -7.015000e-001 1.110000e-001
      vertex   9.000000e-001 -7.065000e-001 1.110000e-001
    endloop
  endfacet
  facet normal 1.000000e+000 -8.540177e-016 -3.511667e-031
    outer loop
      vertex   9.500000e-001 -7.015000e-001 1.110000e-001
      vertex   9.500000e-001 -7.015000e-001 -1.590000e-001
      vertex   9.500000e-001 -5.715000e-001 1.110000e-001
    endloop
  endfacet
  facet normal 1.000000e+000 -8.540177e-016 -3.511667e-031
    outer loop
      vertex   9.500000e-001 -5.715000e-001 1.110000e-001
      vertex   9.500000e-001 -7.015000e-001 -1.590000e-001
      vertex   9.500000e-001 -5.715000e-001 -1.590000e-001
    endloop
  endfacet
  facet normal 9.876883e-001 1.564345e-001 6.429859e-017
    outer loop
      vertex   9.500000e-001 -5.715000e-001 -1.590000e-001
      vertex   9.497553e-001 -5.699549e-001 -1.590000e-001
      vertex   9.500000e-001 -5.715000e-001 1.110000e-001
    endloop
  endfacet
  facet normal 9.876883e-001 1.564345e-001 6.432487e-017
    outer loop
      vertex   9.500000e-001 -5.715000e-001 1.110000e-001
      vertex   9.497553e-001 -5.699549e-001 -1.590000e-001
      vertex   9.497553e-001 -5.699549e-001 1.110000e-001
    endloop
  endfacet
  facet normal 8.910065e-001 4.539905e-001 1.866780e-016
    outer loop
      vertex   9.497553e-001 -5.699549e-001 1.110000e-001
      vertex   9.497553e-001 -5.699549e-001 -1.590000e-001
      vertex   9.490451e-001 -5.685611e-001 -1.590000e-001
    endloop
  endfacet
  facet normal 7.071068e-001 7.071068e-001 2.907579e-016
    outer loop
      vertex   9.490451e-001 -5.685611e-001 1.110000e-001
      vertex   9.490451e-001 -5.685611e-001 -1.590000e-001
      vertex   9.479389e-001 -5.674549e-001 1.110000e-001
    endloop
  endfacet
  facet normal 8.910065e-001 4.539905e-001 1.870049e-016
    outer loop
      vertex   9.490451e-001 -5.685611e-001 1.110000e-001
      vertex   9.497553e-001 -5.699549e-001 1.110000e-001
      vertex   9.490451e-001 -5.685611e-001 -1.590000e-001
    endloop
  endfacet
  facet normal 7.071068e-001 7.071068e-001 2.907579e-016
    outer loop
      vertex   9.490451e-001 -5.685611e-001 -1.590000e-001
      vertex   9.479389e-001 -5.674549e-001 -1.590000e-001
      vertex   9.479389e-001 -5.674549e-001 1.110000e-001
    endloop
  endfacet
  facet normal 4.539905e-001 8.910065e-001 3.663763e-016
    outer loop
      vertex   9.479389e-001 -5.674549e-001 1.110000e-001
      vertex   9.479389e-001 -5.674549e-001 -1.590000e-001
      vertex   9.465451e-001 -5.667447e-001 -1.590000e-001
    endloop
  endfacet
  facet normal 1.564345e-001 9.876883e-001 4.061312e-016
    outer loop
      vertex   9.465451e-001 -5.667447e-001 1.110000e-001
      vertex   9.465451e-001 -5.667447e-001 -1.590000e-001
      vertex   9.450000e-001 -5.665000e-001 -1.590000e-001
    endloop
  endfacet
  facet normal 1.564345e-001 9.876883e-001 4.060964e-016
    outer loop
      vertex   9.450000e-001 -5.665000e-001 1.110000e-001
      vertex   9.465451e-001 -5.667447e-001 1.110000e-001
      vertex   9.450000e-001 -5.665000e-001 -1.590000e-001
    endloop
  endfacet
  facet normal 4.539905e-001 8.910065e-001 3.664895e-016
    outer loop
      vertex   9.465451e-001 -5.667447e-001 1.110000e-001
      vertex   9.479389e-001 -5.674549e-001 1.110000e-001
      vertex   9.465451e-001 -5.667447e-001 -1.590000e-001
    endloop
  endfacet
  facet normal -1.000000e+000 0.000000e+000 0.000000e+000
    outer loop
      vertex   9.000000e-001 -5.665000e-001 1.387779e-017
      vertex   9.000000e-001 -5.715000e-001 1.387779e-017
      vertex   9.000000e-001 -5.665000e-001 1.110000e-001
    endloop
  endfacet
  facet normal -1.000000e+000 -0.000000e+000 0.000000e+000
    outer loop
      vertex   9.000000e-001 -5.665000e-001 1.110000e-001
      vertex   9.000000e-001 -5.715000e-001 1.387779e-017
      vertex   9.000000e-001 -5.715000e-001 1.110000e-001
    endloop
  endfacet
  facet normal 0.000000e+000 0.000000e+000 1.000000e+000
    outer loop
      vertex   9.000000e-001 -5.665000e-001 1.387779e-017
      vertex   8.610000e-001 -5.665000e-001 1.387779e-017
      vertex   9.000000e-001 -5.715000e-001 1.387779e-017
    endloop
  endfacet
  facet normal 0.000000e+000 0.000000e+000 1.000000e+000
    outer loop
      vertex   9.000000e-001 -5.715000e-001 1.387779e-017
      vertex   8.610000e-001 -5.665000e-001 1.387779e-017
      vertex   8.610000e-001 -5.715000e-001 1.387779e-017
    endloop
  endfacet
  facet normal -2.467162e-015 -1.000000e+000 -0.000000e+000
    outer loop
      vertex   9.000000e-001 -5.715000e-001 1.110000e-001
      vertex   9.000000e-001 -5.715000e-001 1.387779e-017
      vertex   9.450000e-001 -5.715000e-001 1.110000e-001
    endloop
  endfacet
  facet normal -1.452884e-015 -1.000000e+000 -4.111937e-016
    outer loop
      vertex   9.450000e-001 -5.715000e-001 1.110000e-001
      vertex   9.000000e-001 -5.715000e-001 1.387779e-017
      vertex   9.450000e-001 -5.715000e-001 -1.590000e-001
    endloop
  endfacet
  facet normal -0.000000e+000 -1.000000e+000 0.000000e+000
    outer loop
      vertex   9.450000e-001 -5.715000e-001 -1.590000e-001
      vertex   9.000000e-001 -5.715000e-001 1.387779e-017
      vertex   8.610000e-001 -5.715000e-001 -1.590000e-001
    endloop
  endfacet
  facet normal 0.000000e+000 -1.000000e+000 0.000000e+000
    outer loop
      vertex   8.610000e-001 -5.715000e-001 -1.590000e-001
      vertex   9.000000e-001 -5.715000e-001 1.387779e-017
      vertex   8.610000e-001 -5.715000e-001 1.387779e-017
    endloop
  endfacet
  facet normal -1.000000e+000 0.000000e+000 -0.000000e+000
    outer loop
      vertex   9.000000e-001 -7.065000e-001 1.110000e-001
      vertex   9.000000e-001 -7.015000e-001 1.110000e-001
      vertex   9.000000e-001 -7.065000e-001 -1.590000e-001
    endloop
  endfacet
  facet normal -1.000000e+000 0.000000e+000 0.000000e+000
    outer loop
      vertex   9.000000e-001 -7.065000e-001 -1.590000e-001
      vertex   9.000000e-001 -7.015000e-001 1.110000e-001
      vertex   9.000000e-001 -7.015000e-001 -1.590000e-001
    endloop
  endfacet
  facet normal 0.000000e+000 -1.000000e+000 -4.111937e-016
    outer loop
      vertex   9.450000e-001 -7.065000e-001 -1.590000e-001
      vertex   9.450000e-001 -7.065000e-001 1.110000e-001
      vertex   9.000000e-001 -7.065000e-001 -1.590000e-001
    endloop
  endfacet
  facet normal -2.467162e-015 -1.000000e+000 0.000000e+000
    outer loop
      vertex   9.000000e-001 -7.065000e-001 -1.590000e-001
      vertex   9.450000e-001 -7.065000e-001 1.110000e-001
      vertex   9.000000e-001 -7.065000e-001 1.110000e-001
    endloop
  endfacet
  facet normal 2.467162e-015 1.000000e+000 0.000000e+000
    outer loop
      vertex   9.000000e-001 -5.665000e-001 1.110000e-001
      vertex   9.450000e-001 -5.665000e-001 1.110000e-001
      vertex   9.000000e-001 -5.665000e-001 1.387779e-017
    endloop
  endfacet
  facet normal 1.452884e-015 1.000000e+000 4.111937e-016
    outer loop
      vertex   9.000000e-001 -5.665000e-001 1.387779e-017
      vertex   9.450000e-001 -5.665000e-001 1.110000e-001
      vertex   9.450000e-001 -5.665000e-001 -1.590000e-001
    endloop
  endfacet
  facet normal -0.000000e+000 1.000000e+000 0.000000e+000
    outer loop
      vertex   8.610000e-001 -5.665000e-001 -1.590000e-001
      vertex   9.000000e-001 -5.665000e-001 1.387779e-017
      vertex   9.450000e-001 -5.665000e-001 -1.590000e-001
    endloop
  endfacet
  facet normal 0.000000e+000 1.000000e+000 0.000000e+000
    outer loop
      vertex   8.610000e-001 -5.665000e-001 -1.590000e-001
      vertex   8.610000e-001 -5.665000e-001 1.387779e-017
      vertex   9.000000e-001 -5.665000e-001 1.387779e-017
    endloop
  endfacet
  facet normal -1.000000e+000 8.540177e-016 3.511667e-031
    outer loop
      vertex   9.450000e-001 -7.015000e-001 1.110000e-001
      vertex   9.450000e-001 -5.715000e-001 1.110000e-001
      vertex   9.450000e-001 -7.015000e-001 -1.590000e-001
    endloop
  endfacet
  facet normal -1.000000e+000 8.540177e-016 3.511667e-031
    outer loop
      vertex   9.450000e-001 -7.015000e-001 -1.590000e-001
      vertex   9.450000e-001 -5.715000e-001 1.110000e-001
      vertex   9.450000e-001 -5.715000e-001 -1.590000e-001
    endloop
  endfacet
  facet normal 2.467162e-015 1.000000e+000 0.000000e+000
    outer loop
      vertex   9.000000e-001 -7.015000e-001 1.110000e-001
      vertex   9.450000e-001 -7.015000e-001 1.110000e-001
      vertex   9.000000e-001 -7.015000e-001 -1.590000e-001
    endloop
  endfacet
  facet normal 0.000000e+000 1.000000e+000 4.111937e-016
    outer loop
      vertex   9.000000e-001 -7.015000e-001 -1.590000e-001
      vertex   9.450000e-001 -7.015000e-001 1.110000e-001
      vertex   9.450000e-001 -7.015000e-001 -1.590000e-001
    endloop
  endfacet
  facet normal -0.000000e+000 0.000000e+000 -1.000000e+000
    outer loop
      vertex   9.500000e-001 -5.715000e-001 -1.590000e-001
      vertex   9.500000e-001 -7.015000e-001 -1.590000e-001
      vertex   9.450000e-001 -7.015000e-001 -1.590000e-001
    endloop
  endfacet
  facet normal 0.000000e+000 -0.000000e+000 -1.000000e+000
    outer loop
      vertex   9.450000e-001 -5.715000e-001 -1.590000e-001
      vertex   9.500000e-001 -5.715000e-001 -1.590000e-001
      vertex   9.450000e-001 -7.015000e-001 -1.590000e-001
    endloop
  endfacet
  facet normal 0.000000e+000 0.000000e+000 -1.000000e+000
    outer loop
      vertex   9.450000e-001 -5.715000e-001 -1.590000e-001
      vertex   9.497553e-001 -5.699549e-001 -1.590000e-001
      vertex   9.500000e-001 -5.715000e-001 -1.590000e-001
    endloop
  endfacet
  facet normal 0.000000e+000 0.000000e+000 -1.000000e+000
    outer loop
      vertex   9.450000e-001 -5.715000e-001 -1.590000e-001
      vertex   9.490451e-001 -5.685611e-001 -1.590000e-001
      vertex   9.497553e-001 -5.699549e-001 -1.590000e-001
    endloop
  endfacet
  facet normal 0.000000e+000 0.000000e+000 -1.000000e+000
    outer loop
      vertex   9.450000e-001 -5.715000e-001 -1.590000e-001
      vertex   9.479389e-001 -5.674549e-001 -1.590000e-001
      vertex   9.490451e-001 -5.685611e-001 -1.590000e-001
    endloop
  endfacet
  facet normal 0.000000e+000 0.000000e+000 -1.000000e+000
    outer loop
      vertex   9.450000e-001 -5.715000e-001 -1.590000e-001
      vertex   9.465451e-001 -5.667447e-001 -1.590000e-001
      vertex   9.479389e-001 -5.674549e-001 -1.590000e-001
    endloop
  endfacet
  facet normal 0.000000e+000 0.000000e+000 -1.000000e+000
    outer loop
      vertex   9.450000e-001 -5.715000e-001 -1.590000e-001
      vertex   9.450000e-001 -5.665000e-001 -1.590000e-001
      vertex   9.465451e-001 -5.667447e-001 -1.590000e-001
    endloop
  endfacet
  facet normal 0.000000e+000 0.000000e+000 -1.000000e+000
    outer loop
      vertex   9.450000e-001 -5.715000e-001 -1.590000e-001
      vertex   8.610000e-001 -5.715000e-001 -1.590000e-001
      vertex   9.450000e-001 -5.665000e-001 -1.590000e-001
    endloop
  endfacet
  facet normal -0.000000e+000 0.000000e+000 -1.000000e+000
    outer loop
      vertex   9.450000e-001 -5.665000e-001 -1.590000e-001
      vertex   8.610000e-001 -5.715000e-001 -1.590000e-001
      vertex   8.610000e-001 -5.665000e-001 -1.590000e-001
    endloop
  endfacet
  facet normal -0.000000e+000 0.000000e+000 -1.000000e+000
    outer loop
      vertex   9.500000e-001 -7.015000e-001 -1.590000e-001
      vertex   9.497553e-001 -7.030451e-001 -1.590000e-001
      vertex   9.450000e-001 -7.015000e-001 -1.590000e-001
    endloop
  endfacet
  facet normal 0.000000e+000 -0.000000e+000 -1.000000e+000
    outer loop
      vertex   9.450000e-001 -7.015000e-001 -1.590000e-001
      vertex   9.497553e-001 -7.030451e-001 -1.590000e-001
      vertex   9.490451e-001 -7.044389e-001 -1.590000e-001
    endloop
  endfacet
  facet normal 0.000000e+000 0.000000e+000 -1.000000e+000
    outer loop
      vertex   9.479389e-001 -7.055451e-001 -1.590000e-001
      vertex   9.450000e-001 -7.015000e-001 -1.590000e-001
      vertex   9.490451e-001 -7.044389e-001 -1.590000e-001
    endloop
  endfacet
  facet normal -0.000000e+000 0.000000e+000 -1.000000e+000
    outer loop
      vertex   9.479389e-001 -7.055451e-001 -1.590000e-001
      vertex   9.465451e-001 -7.062553e-001 -1.590000e-001
      vertex   9.450000e-001 -7.015000e-001 -1.590000e-001
    endloop
  endfacet
  facet normal 0.000000e+000 -0.000000e+000 -1.000000e+000
    outer loop
      vertex   9.450000e-001 -7.015000e-001 -1.590000e-001
      vertex   9.465451e-001 -7.062553e-001 -1.590000e-001
      vertex   9.450000e-001 -7.065000e-001 -1.590000e-001
    endloop
  endfacet
  facet normal 0.000000e+000 0.000000e+000 -1.000000e+000
    outer loop
      vertex   9.000000e-001 -7.065000e-001 -1.590000e-001
      vertex   9.450000e-001 -7.015000e-001 -1.590000e-001
      vertex   9.450000e-001 -7.065000e-001 -1.590000e-001
    endloop
  endfacet
  facet normal 0.000000e+000 0.000000e+000 -1.000000e+000
    outer loop
      vertex   9.000000e-001 -7.065000e-001 -1.590000e-001
      vertex   9.000000e-001 -7.015000e-001 -1.590000e-001
      vertex   9.450000e-001 -7.015000e-001 -1.590000e-001
    endloop
  endfacet
endsolid
